<?xml version="1.0" encoding="utf-8"?>
<!-- Generator: Adobe Illustrator 19.0.0, SVG Export Plug-In . SVG Version: 6.00 Build 0)  -->
<svg version="1.1" id="图层_1" xmlns="http://www.w3.org/2000/svg" x="0px"
     y="0px"
     viewBox="0 0 36 36" style="enable-background:new 0 0 36 36;" xml:space="preserve">
<style type="text/css">
	.st0{fill-rule:evenodd;clip-rule:evenodd;fill:#4A91E3;}
</style>
    <path id="XMLID_2_" class="st0" d="M18,0C8.1,0,0,8.1,0,18c0,9.9,8.1,18,18,18c9.9,0,18-8.1,18-18S27.9,0,18,0L18,0z M17,28.2H9.3
	v-2.5H17V28.2L17,28.2z M27,28.2l-10.7-9.8c0,0-1.7,1.7-2.2,2.2C14,20.6,14,20.8,14,20.8c0.1,0.4,0,0.8-0.5,1.1
	c-0.3,0.2-0.7,0.1-1-0.2c-1.5-1.5-3-3-4.5-4.5c-0.3-0.3-0.3-0.7-0.2-1c0.3-0.4,0.7-0.6,1.1-0.5c0.2,0.1,0.3,0,0.4-0.1
	c0.8-0.8,1.5-1.5,2.3-2.3c1.4-1.4,2.7-2.7,4.1-4.1c0.1-0.1,0.1-0.1,0.1-0.3c-0.2-0.4,0-0.8,0.4-1.1c0.3-0.2,0.7-0.2,1,0.2
	c1.5,1.5,3,3,4.4,4.5c0.3,0.3,0.4,0.7,0.2,1c-0.2,0.4-0.6,0.7-1,0.5c-0.4-0.1-0.5,0.1-0.7,0.3c-0.1,0.1-2.1,2.1-2.1,2.1L28.2,27
	L27,28.2L27,28.2z"/>
</svg>
