<?xml version="1.0" encoding="UTF-8" standalone="no"?>
<svg xmlns:sketch="http://www.bohemiancoding.com/sketch/ns" width="20px" height="19px" viewBox="0 0 20 19" version="1.1"
     xmlns="http://www.w3.org/2000/svg">
    <!-- Generator: Sketch 3.5.2 (25235) - http://www.bohemiancoding.com/sketch -->
    <title>XMLID_508_</title>
    <desc>Created with Sketch.</desc>
    <defs></defs>
    <g id="Page-1" stroke="none" stroke-width="1" fill="none" fill-rule="evenodd" sketch:type="MSPage">
        <g id="bg" sketch:type="MSArtboardGroup" transform="translate(-548.000000, -138.000000)" fill="#717171">
            <g id="XMLID_508_" sketch:type="MSLayerGroup" transform="translate(548.000000, 138.000000)">
                <path d="M9.95421053,0.94 C10.1268421,0.94 10.2868421,0.999473684 10.4031579,1.10736842 L18.9763158,9.02421053 L18.3205263,9.02421053 C17.3810526,9.02421053 16.6168421,9.78842105 16.6168421,10.7278947 L16.6168421,17.6894737 C16.6168421,18.0026316 16.3621053,18.2573684 16.0489474,18.2573684 L13.9215789,18.2573684 C13.6084211,18.2573684 13.3536842,18.0026316 13.3536842,17.6894737 L13.3536842,13.5947368 C13.3536842,12.6552632 12.5894737,11.8910526 11.65,11.8910526 L8.63157895,11.8910526 C7.69210526,11.8910526 6.92789474,12.6552632 6.92789474,13.5947368 L6.92789474,17.6894737 C6.92789474,18.0026316 6.67315789,18.2573684 6.36,18.2573684 L3.85894737,18.2573684 C3.54578947,18.2573684 3.29105263,18.0026316 3.29105263,17.6894737 L3.29105263,10.7278947 C3.29105263,9.78842105 2.52684211,9.02421053 1.58736842,9.02421053 L0.931578947,9.02421053 L9.50473684,1.10736842 C9.62157895,0.998947368 9.78105263,0.94 9.95421053,0.94 L9.95421053,0.94 Z M9.95421053,0.372105263 C9.65157895,0.372105263 9.34947368,0.477894737 9.12,0.69 L0.314210526,8.82157895 C-0.144736842,9.24526316 -0.00894736842,9.59210526 0.615789474,9.59210526 L1.58789474,9.59210526 C2.21263158,9.59210526 2.72368421,10.1031579 2.72368421,10.7278947 L2.72368421,17.6894737 C2.72368421,18.3142105 3.23473684,18.8252632 3.85947368,18.8252632 L6.36052632,18.8252632 C6.98526316,18.8252632 7.49631579,18.3142105 7.49631579,17.6894737 L7.49631579,13.5947368 C7.49631579,12.97 8.00736842,12.4589474 8.63210526,12.4589474 L11.6510526,12.4589474 C12.2757895,12.4589474 12.7868421,12.97 12.7868421,13.5947368 L12.7868421,17.6894737 C12.7868421,18.3142105 13.2978947,18.8252632 13.9226316,18.8252632 L16.05,18.8252632 C16.6747368,18.8252632 17.1857895,18.3142105 17.1857895,17.6894737 L17.1857895,10.7278947 C17.1857895,10.1031579 17.6968421,9.59210526 18.3215789,9.59210526 L19.2936842,9.59210526 C19.9184211,9.59210526 20.0542105,9.24526316 19.5952632,8.82157895 L10.7894737,0.69 C10.5589474,0.477894737 10.2563158,0.372105263 9.95421053,0.372105263 L9.95421053,0.372105263 L9.95421053,0.372105263 Z"
                      id="Shape" sketch:type="MSShapeGroup"></path>
            </g>
        </g>
    </g>
</svg>