<?xml version="1.0" encoding="UTF-8" standalone="no"?>
<svg xmlns:sketch="http://www.bohemiancoding.com/sketch/ns" width="22px" height="23px" viewBox="0 0 22 23" version="1.1"
     xmlns="http://www.w3.org/2000/svg">
    <!-- Generator: Sketch 3.5.2 (25235) - http://www.bohemiancoding.com/sketch -->
    <title>XMLID_209_ Copy 4</title>
    <desc>Created with Sketch.</desc>
    <defs></defs>
    <g id="Page-1" stroke="none" stroke-width="1" fill="none" fill-rule="evenodd" sketch:type="MSPage">
        <g id="bg" sketch:type="MSArtboardGroup" transform="translate(-739.000000, -394.000000)" fill="#191919">
            <g id="Group-5" sketch:type="MSLayerGroup" transform="translate(728.000000, 383.000000)">
                <g id="XMLID_209_-Copy-4" transform="translate(11.000000, 11.000000)" sketch:type="MSShapeGroup">
                    <g id="XMLID_190_">
                        <path d="M8.63076923,17.0923077 C6.51538462,17.0923077 4.31538462,16.2461538 2.79230769,14.6384615 C-0.423076923,11.4230769 -0.423076923,6.09230769 2.79230769,2.87692308 C6.00769231,-0.338461538 11.3384615,-0.338461538 14.5538462,2.87692308 C17.7692308,6.09230769 17.7692308,11.4230769 14.5538462,14.6384615 C14.3846154,14.8076923 14.1307692,14.8076923 13.9615385,14.6384615 C13.7923077,14.4692308 13.7923077,14.2153846 13.9615385,14.0461538 C16.8384615,11.1692308 16.8384615,6.43076923 13.9615385,3.46923077 C11.0846154,0.592307692 6.34615385,0.592307692 3.38461538,3.46923077 C0.507692308,6.34615385 0.507692308,11.0846154 3.38461538,14.0461538 C5.92307692,16.5846154 9.9,16.9230769 12.8615385,14.9769231 C13.0307692,14.8076923 13.2846154,14.8923077 13.4538462,15.0615385 C13.6230769,15.2307692 13.5384615,15.4846154 13.3692308,15.6538462 C11.8461538,16.5846154 10.2384615,17.0923077 8.63076923,17.0923077 L8.63076923,17.0923077 Z"
                              id="XMLID_200_"></path>
                    </g>
                    <g id="XMLID_162_" transform="translate(13.538462, 13.538462)">
                        <path d="M8.03846154,8.63076923 C7.95384615,8.63076923 7.78461538,8.63076923 7.7,8.54615385 L0.338461538,1.18461538 C0.169230769,1.01538462 0.169230769,0.761538462 0.338461538,0.592307692 C0.507692308,0.423076923 0.761538462,0.423076923 0.930769231,0.592307692 L8.29230769,7.95384615 C8.46153846,8.12307692 8.46153846,8.37692308 8.29230769,8.54615385 C8.20769231,8.63076923 8.12307692,8.63076923 8.03846154,8.63076923 L8.03846154,8.63076923 Z"
                              id="XMLID_199_"></path>
                    </g>
                </g>
            </g>
        </g>
    </g>
</svg>