<?xml version="1.0" encoding="UTF-8" standalone="no"?>
<svg xmlns:sketch="http://www.bohemiancoding.com/sketch/ns" width="32px" height="32px" viewBox="0 0 32 32" version="1.1"
     xmlns="http://www.w3.org/2000/svg">
    <!-- Generator: Sketch 3.5.2 (25235) - http://www.bohemiancoding.com/sketch -->
    <title>icon-tabbar-designer-default</title>
    <desc>Created with Sketch.</desc>
    <defs></defs>
    <g id="Page-1" stroke="none" stroke-width="1" fill="none" fill-rule="evenodd" sketch:type="MSPage">
        <g id="bg" sketch:type="MSArtboardGroup" transform="translate(-869.000000, -188.000000)" fill="#717171">
            <g id="Group" sketch:type="MSLayerGroup" transform="translate(875.000000, 194.000000)">
                <path d="M10.1826316,0.908947368 C15.2642105,0.908947368 19.3984211,5.04315789 19.3984211,10.1247368 C19.3984211,15.2063158 15.2642105,19.3405263 10.1826316,19.3405263 C5.10105263,19.3405263 0.966842105,15.2063158 0.966842105,10.1247368 C0.966842105,5.04315789 5.10105263,0.908947368 10.1826316,0.908947368 L10.1826316,0.908947368 Z M10.1826316,0.362631579 C4.79105263,0.362631579 0.420526316,4.73315789 0.420526316,10.1247368 C0.420526316,15.5163158 4.79105263,19.8868421 10.1826316,19.8868421 C15.5742105,19.8868421 19.9447368,15.5163158 19.9447368,10.1247368 C19.9447368,4.73315789 15.5742105,0.362631579 10.1826316,0.362631579 L10.1826316,0.362631579 L10.1826316,0.362631579 Z"
                      id="Shape" sketch:type="MSShapeGroup"></path>
                <g id="XMLID_751_" transform="translate(5.789474, 14.210526)" sketch:type="MSShapeGroup">
                    <path d="M4.39315789,3.05315789 C4.17631579,3.05315789 3.96,2.99105263 3.79105263,2.86789474 L0.608947368,0.537894737 C0.487368421,0.448947368 0.461052632,0.277894737 0.55,0.156315789 C0.638947368,0.0347368421 0.81,0.00789473684 0.931578947,0.0973684211 L4.11368421,2.42736842 C4.26,2.53421053 4.52684211,2.53368421 4.67263158,2.42736842 L7.85526316,0.0973684211 C7.97684211,0.00789473684 8.14789474,0.0347368421 8.23684211,0.156315789 C8.32578947,0.277894737 8.29947368,0.448947368 8.17789474,0.537894737 L4.99526316,2.86789474 C4.82631579,2.99157895 4.61,3.05315789 4.39315789,3.05315789 L4.39315789,3.05315789 Z"
                          id="Shape"></path>
                </g>
                <g id="XMLID_749_" transform="translate(7.368421, 3.684211)" sketch:type="MSShapeGroup">
                    <path d="M0.704736842,8.86684211 C0.553684211,8.86684211 0.431578947,8.74473684 0.431578947,8.59368421 L0.431578947,0.644736842 C0.431578947,0.493684211 0.553684211,0.371578947 0.704736842,0.371578947 C0.855789474,0.371578947 0.977894737,0.493684211 0.977894737,0.644736842 L0.977894737,8.59368421 C0.977894737,8.74421053 0.855789474,8.86684211 0.704736842,8.86684211 L0.704736842,8.86684211 Z"
                          id="Shape"></path>
                </g>
                <g id="XMLID_747_" transform="translate(5.789474, 14.210526)" sketch:type="MSShapeGroup">
                    <path d="M8.01631579,0.590526316 L0.77,0.590526316 C0.618947368,0.590526316 0.496842105,0.468421053 0.496842105,0.317368421 C0.496842105,0.166315789 0.618947368,0.0442105263 0.77,0.0442105263 L8.01631579,0.0442105263 C8.16736842,0.0442105263 8.28947368,0.166315789 8.28947368,0.317368421 C8.28947368,0.468421053 8.16736842,0.590526316 8.01631579,0.590526316 L8.01631579,0.590526316 Z"
                          id="Shape"></path>
                </g>
                <g id="XMLID_744_" transform="translate(5.789474, 3.684211)" sketch:type="MSShapeGroup">
                    <path d="M0.770526316,11.1168421 C0.619473684,11.1168421 0.497368421,10.9947368 0.497368421,10.8436842 L0.497368421,1.73736842 C0.497368421,0.984210526 1.11,0.371578947 1.86315789,0.371578947 L6.92421053,0.371578947 C7.67736842,0.371578947 8.29,0.984210526 8.29,1.73736842 L8.29,8.62263158 C8.29,8.77368421 8.16789474,8.89578947 8.01684211,8.89578947 C7.86578947,8.89578947 7.74368421,8.77368421 7.74368421,8.62263158 L7.74368421,1.73736842 C7.74368421,1.28526316 7.37631579,0.917894737 6.92421053,0.917894737 L1.86315789,0.917894737 C1.41105263,0.917894737 1.04368421,1.28526316 1.04368421,1.73736842 L1.04368421,10.8436842 C1.04368421,10.9947368 0.921052632,11.1168421 0.770526316,11.1168421 L0.770526316,11.1168421 Z"
                          id="Shape"></path>
                </g>
            </g>
        </g>
    </g>
</svg>