<?xml version="1.0" encoding="UTF-8" standalone="no"?>
<svg xmlns:sketch="http://www.bohemiancoding.com/sketch/ns" width="60px" height="60px" viewBox="0 0 60 60" version="1.1"
     xmlns="http://www.w3.org/2000/svg">
    <!-- Generator: Sketch 3.3.2 (12043) - http://www.bohemiancoding.com/sketch -->
    <title>icon-avatar</title>
    <desc>Created with Sketch.</desc>
    <defs></defs>
    <g id="Page-1" stroke="none" stroke-width="1" fill="none" fill-rule="evenodd" sketch:type="MSPage">
        <g id="user" sketch:type="MSLayerGroup" transform="translate(5.000000, 5.000000)" fill="#FFFFFF">
            <path d="M24.9863791,49.698982 C11.3133762,49.698982 0.187764706,38.5733706 0.187764706,24.8989028 C0.187764706,11.224435 11.3133762,0.0988235294 24.9863791,0.0988235294 C38.6608469,0.0988235294 49.7864583,11.224435 49.7864583,24.8989028 C49.7864583,38.5733706 38.6608469,49.698982 24.9863791,49.698982 L24.9863791,49.698982 Z M24.9863791,3 C12.8148576,3 2.91093938,12.9024534 2.91093938,25.0754397 C2.91093938,37.248426 12.8148576,47.1508794 24.9863791,47.1508794 C37.1593654,47.1508794 47.0632837,37.248426 47.0632837,25.0754397 C47.0632837,12.9024534 37.1593654,3 24.9863791,3 L24.9863791,3 Z"
                  id="Fill-57" sketch:type="MSShapeGroup"></path>
            <path d="M10.5252815,43.5071743 L8.03062497,42.4099942 C8.78795757,40.6946432 11.0247987,39.6912141 13.6176009,38.5281153 C16.1181168,37.4060326 19.2309443,36.010021 19.2309443,34.3547292 L19.2309443,32.1017746 C18.344704,31.3590906 16.8432225,29.7623932 16.6073801,27.3614878 C15.8895987,26.6847225 14.6986675,25.3048244 14.6986675,23.5967976 C14.6986675,22.5596768 15.1088283,21.7232417 15.4691839,21.1914976 C15.2494549,20.0796689 14.8363644,17.7520064 14.8363644,16.0439797 C14.8363644,10.3222366 18.8207835,6.62493006 24.9863791,6.62493006 C26.7559299,6.62493006 28.9048795,7.09954469 30.1016701,8.38129717 C32.8966229,8.87349011 35.1378587,12.1826088 35.1378587,16.0439797 C35.1378587,18.5210579 34.7027953,20.5586781 34.4405853,21.5665017 C34.7320925,22.0601595 35.0470373,22.7925895 35.0470373,23.6422083 C35.0470373,25.5626397 34.0773,26.804841 33.1720166,27.4684225 C32.9156661,29.8356362 31.5665301,31.3620203 30.7432788,32.0856612 L30.7432788,34.3547292 C30.7432788,35.7624597 33.2950648,36.7087592 35.7633539,37.6242967 C38.5700256,38.6643473 41.473378,39.7410193 42.3742669,42.0950493 L39.8268754,43.0677163 C39.3698391,41.8665312 36.9498904,40.9700369 34.8155895,40.1790125 C31.6309839,38.9968705 28.0201041,37.6579885 28.0201041,34.3547292 L28.0201041,30.6720713 L28.6558533,30.2721645 C28.7203071,30.2296836 30.4913228,29.0402173 30.4913228,26.6642144 L30.4913228,25.7428175 L31.3468011,25.4000403 C31.4903573,25.3341216 32.3223978,24.8961284 32.3223978,23.6422083 C32.3223978,23.258415 32.0294258,22.829211 31.9268856,22.7090925 L31.4302981,22.1260782 L31.6588162,21.3833942 C31.6661405,21.3599565 32.414684,19.0571966 32.414684,16.0439797 C32.414684,13.4731504 30.9410349,11.0429477 29.380959,11.0429477 L28.5987238,11.0429477 L28.2046764,10.3676473 C27.916099,9.87398947 26.6914761,9.3495696 24.9863791,9.3495696 C20.3369136,9.3495696 17.5595391,11.8515504 17.5595391,16.0439797 C17.5595391,18.0244703 18.2538827,21.2134705 18.261207,21.2456974 L18.4223416,21.9839868 L17.8832731,22.5113364 C17.8832731,22.5113364 17.4218422,22.9991348 17.4218422,23.5967976 C17.4218422,24.3512005 18.3271257,25.2901758 18.7651188,25.6270936 L19.2953981,26.0357895 L19.2997927,26.7096251 C19.2997927,28.9537905 21.2363376,30.2194296 21.3198346,30.2721645 L21.9467947,30.6735361 L21.954119,34.3547292 C21.954119,37.7751773 18.1176507,39.4963877 14.7308945,41.0139827 C13.0961107,41.7464126 10.8592696,42.7513066 10.5252815,43.5071743"
                  id="Fill-58" sketch:type="MSShapeGroup"></path>
        </g>
    </g>
</svg>