<?xml version="1.0" encoding="UTF-8" standalone="no"?>
<svg xmlns:sketch="http://www.bohemiancoding.com/sketch/ns" width="60px" height="60px" viewBox="0 0 60 60" version="1.1"
     xmlns="http://www.w3.org/2000/svg">
    <!-- Generator: Sketch 3.3.2 (12043) - http://www.bohemiancoding.com/sketch -->
    <title>icon-cate</title>
    <desc>Created with Sketch.</desc>
    <defs></defs>
    <g id="Page-1" stroke="none" stroke-width="1" fill="none" fill-rule="evenodd" sketch:type="MSPage">
        <path d="M34.8417749,36.0585603 C27.5121541,34.0945943 23.1346872,26.6644413 25.0674295,19.4513486 C27.0001719,12.2382559 34.5093684,7.98063526 41.8389892,9.94460124 C49.16861,11.9085672 53.5441198,19.3506853 51.6113775,26.563778 C49.6786351,33.7768707 42.1713958,38.0225263 34.8417749,36.0585603 L34.8417749,36.0585603 Z M54.2715564,48.5086355 L47.1859769,36.4561375 C50.4390708,34.3927806 52.9556623,31.1953699 54.0235103,27.210107 C56.3090796,18.6802462 51.138654,9.88859116 42.4759511,7.56742692 C33.8132482,5.24626268 24.9397008,10.2748465 22.6541315,18.8047073 C20.3716845,27.3229153 25.5421101,36.1145704 34.204813,38.4357346 C37.9476973,39.4386375 41.7271989,39.0650229 45.0012974,37.6317668 L52.1159641,49.729527 C52.4630086,50.3220953 53.226268,50.52661 53.8219362,50.1866409 C54.4156474,49.8586367 54.618601,49.1012037 54.2715564,48.5086355 Z M5,12.15 C5,11.5148725 5.51422715,11 6.15068054,11 L19.8493195,11 C20.4848228,11 21,11.5104445 21,12.15 C21,12.7851274 20.4857728,13.3 19.8493195,13.3 L6.15068054,13.3 C5.51517723,13.3 5,12.7895554 5,12.15 Z M5,47.0014535 C5,46.366326 5.52070618,45.8514535 6.15765342,45.8514535 L33.8423466,45.8514535 C34.4817009,45.8514535 35,46.361898 35,47.0014535 C35,47.6365809 34.4792938,48.1514534 33.8423466,48.1514534 L6.15765342,48.1514534 C5.51829909,48.1514534 5,47.6410089 5,47.0014535 Z M5,30.15 C5,29.5148725 5.50961541,29 6.15366328,29 L16.8463367,29 C17.4834874,29 18,29.5104445 18,30.15 C18,30.7851274 17.4903846,31.3 16.8463367,31.3 L6.15366328,31.3 C5.51651264,31.3 5,30.7895554 5,30.15 Z"
              id="cate" fill="#FFFFFF" sketch:type="MSShapeGroup"></path>
    </g>
</svg>