<?xml version="1.0" encoding="UTF-8" standalone="no"?>
<svg xmlns:sketch="http://www.bohemiancoding.com/sketch/ns" width="60px" height="60px" viewBox="0 0 60 60" version="1.1"
     xmlns="http://www.w3.org/2000/svg">
    <!-- Generator: Sketch 3.3.2 (12043) - http://www.bohemiancoding.com/sketch -->
    <title>icon-earth</title>
    <desc>Created with Sketch.</desc>
    <defs></defs>
    <g id="Page-1" stroke="none" stroke-width="1" fill="none" fill-rule="evenodd" sketch:type="MSPage">
        <path d="M47.6775,12.3225 C42.955,7.6 36.6775,5 30,5 C23.3225,5 17.045,7.6 12.3225,12.3225 C7.6,17.045 5,23.3225 5,30 C5,36.6775 7.6,42.955 12.3225,47.6775 C17.045,52.4 23.3225,55 30,55 C36.6775,55 42.955,52.4 47.6775,47.6775 C52.4,42.955 55,36.6775 55,30 C55,23.3225 52.4,17.045 47.6775,12.3225 L47.6775,12.3225 Z M50.9925,21.9025 C50.505,21.025 49.28,20.6075 47.68,20.0625 C45.9625,19.4775 45.355,17.7125 44.6525,15.6675 C44.0425,13.8925 43.4125,12.06 41.915,10.92 C46.0125,13.4875 49.225,17.3375 50.9925,21.9025 L50.9925,21.9025 Z M43.9775,30.4775 C44.1675,32.17 44.3625,33.9225 42.26,36.2825 C41.6925,36.92 41.36,37.8075 41.0075,38.7475 C40.1925,40.925 39.4225,42.9825 36.1425,43.0125 C36.05,42.9025 35.79,42.4875 35.5575,41.18 C35.345,39.975 35.2225,38.415 35.09,36.7675 C34.89,34.2375 34.6625,31.3675 34.0375,28.9875 C33.2375,25.945 31.895,24.1475 29.935,23.4925 C29.08,23.2075 28.205,23.0675 27.265,23.0675 C26.57,23.0675 25.94,23.1425 25.385,23.2075 C24.9525,23.2575 24.5425,23.3075 24.1975,23.3075 L24.1975,23.3075 C23.6125,23.3075 22.95,23.3075 22.1325,21.4375 C20.96,18.75 21.825,14.4425 25.2675,12.17 C27.155,10.925 28.4575,10.3925 29.6225,10.3925 C30.5525,10.3925 31.555,10.715 32.9775,11.475 C34.6575,12.37 35.975,12.485 36.935,12.485 C37.315,12.485 37.66,12.465 37.9925,12.445 C38.2725,12.4275 38.535,12.4125 38.78,12.4125 C39.33,12.4125 39.775,12.485 40.2975,12.84 C41.26,13.4975 41.76,14.95 42.2875,16.485 C43.0875,18.815 43.995,21.455 46.875,22.435 C47.2625,22.5675 47.9275,22.7925 48.4,22.99 C47.9925,23.41 47.3125,24.0175 46.645,24.6125 C46.215,24.9975 45.7275,25.4325 45.1875,25.925 C43.6275,27.3475 43.8125,29.0125 43.9775,30.48 L43.9775,30.4775 Z M7.5025,29.8075 C7.7725,29.855 8.0625,29.9125 8.3625,29.975 C9.7675,30.275 10.425,30.545 10.7125,30.6975 C10.58,30.955 10.3125,31.335 10.135,31.585 C9.5175,32.4625 8.7475,33.555 9.04,34.7575 C9.2375,35.57 9.07,36.565 8.7825,37.485 C7.9525,35.14 7.5,32.62 7.5,29.995 C7.5,29.93 7.5025,29.8675 7.5025,29.8025 L7.5025,29.8075 Z M30,52.5 C21.4375,52.5 13.975,47.69 10.175,40.6325 C10.83,39.385 12.045,36.625 11.4775,34.21 C11.5175,33.9675 11.93,33.3825 12.1775,33.03 C12.855,32.0675 13.6975,30.8725 13.0725,29.605 C12.635,28.715 11.4625,28.115 9.1575,27.595 C8.6225,27.475 8.1025,27.3775 7.66,27.3 C9,16.1625 18.505,7.5025 29.9975,7.5025 C33.9425,7.5025 37.6525,8.525 40.8775,10.315 C40.08,9.9675 39.3575,9.9125 38.7775,9.9125 C38.46,9.9125 38.145,9.93 37.84,9.95 C37.5425,9.9675 37.235,9.985 36.93,9.985 C36.22,9.985 35.335,9.9 34.15,9.2675 C32.34,8.305 30.985,7.8925 29.62,7.8925 C27.93,7.8925 26.215,8.5475 23.8875,10.0825 C21.875,11.41 20.36,13.44 19.62,15.8025 C18.8975,18.105 18.975,20.4625 19.8375,22.4375 C20.855,24.7675 22.1975,25.8075 24.1925,25.8075 L24.1925,25.8075 C24.685,25.8075 25.165,25.75 25.6725,25.69 C26.185,25.63 26.7125,25.5675 27.26,25.5675 C27.9375,25.5675 28.535,25.6625 29.1375,25.8625 C30.235,26.23 31.045,27.46 31.615,29.6225 C32.185,31.785 32.4,34.5375 32.5925,36.9625 C32.7525,38.9875 32.9025,40.8975 33.235,42.34 C33.4375,43.215 33.6975,43.88 34.035,44.3725 C34.5375,45.1075 35.2575,45.5125 36.0625,45.5125 C38.2725,45.5125 40.0375,44.8 41.31,43.395 C42.3675,42.2275 42.9075,40.785 43.3425,39.625 C43.5975,38.9425 43.8625,38.235 44.12,37.945 C46.9625,34.7525 46.67,32.1225 46.455,30.2 C46.2975,28.79 46.295,28.29 46.865,27.77 C47.395,27.2875 47.8775,26.855 48.3025,26.475 C49.21,25.665 49.865,25.08 50.325,24.58 C50.64,24.235 51.38,23.4275 51.175,22.4175 C51.1725,22.4075 51.17,22.4 51.17,22.39 C52.0275,24.7675 52.495,27.33 52.495,30 C52.495,42.4075 42.4025,52.5 29.995,52.5 L30,52.5 Z"
              id="earth-copy" fill="#FFFFFF" sketch:type="MSShapeGroup"></path>
    </g>
</svg>