<?xml version="1.0" encoding="UTF-8" standalone="no"?>
<svg xmlns:sketch="http://www.bohemiancoding.com/sketch/ns" width="60px" height="60px" viewBox="0 0 60 60" version="1.1"
     xmlns="http://www.w3.org/2000/svg">
    <!-- Generator: Sketch 3.3.2 (12043) - http://www.bohemiancoding.com/sketch -->
    <title>icon-wait</title>
    <desc>Created with Sketch.</desc>
    <defs></defs>
    <g id="Page-1" stroke="none" stroke-width="1" fill="none" fill-rule="evenodd" sketch:type="MSPage">
        <g id="clock" sketch:type="MSLayerGroup" transform="translate(5.000000, 5.000000)" fill="#5BBD72">
            <path d="M25,49.8970588 C11.2720588,49.8970588 0.102941176,38.7279412 0.102941176,25 C0.102941176,11.2720588 11.2720588,0.102941176 25,0.102941176 C38.7279412,0.102941176 49.8970588,11.2720588 49.8970588,25 C49.8970588,38.7279412 38.7279412,49.8970588 25,49.8970588 L25,49.8970588 Z M25,2.83823529 C12.7794118,2.83823529 2.83823529,12.7794118 2.83823529,25 C2.83823529,37.2205882 12.7794118,47.1617647 25,47.1617647 C37.2205882,47.1617647 47.1617647,37.2205882 47.1617647,25 C47.1617647,12.7794118 37.2205882,2.83823529 25,2.83823529 L25,2.83823529 Z"
                  id="Fill-131" sketch:type="MSShapeGroup"></path>
            <path d="M32.7838235,37.8044118 L23.5294118,28.55 L23.5294118,11.7647059 L26.4705882,11.7647059 L26.4705882,27.3323529 L34.8632353,35.725 L32.7838235,37.8044118"
                  id="Fill-132" sketch:type="MSShapeGroup"></path>
        </g>
    </g>
</svg>