<?xml version="1.0" encoding="UTF-8" standalone="no"?>
<svg xmlns:sketch="http://www.bohemiancoding.com/sketch/ns" width="20px" height="19px" viewBox="0 0 20 19" version="1.1"
     xmlns="http://www.w3.org/2000/svg">
    <!-- Generator: Sketch 3.5.2 (25235) - http://www.bohemiancoding.com/sketch -->
    <title>XMLID_124_</title>
    <desc>Created with Sketch.</desc>
    <defs></defs>
    <g id="Page-1" stroke="none" stroke-width="1" fill="none" fill-rule="evenodd" sketch:type="MSPage">
        <g id="bg" sketch:type="MSArtboardGroup" transform="translate(-777.000000, -504.000000)" fill="#727171">
            <g id="bar-fav" sketch:type="MSLayerGroup" transform="translate(777.000000, 503.683716)">
                <g id="XMLID_124_" sketch:type="MSShapeGroup">
                    <path d="M10,1.72413793 L12.2758621,6.34482759 C12.4827586,6.68965517 12.8965517,7.03448276 13.3103448,7.10344828 L18.3448276,7.86206897 L14.6896552,11.4482759 C14.4137931,11.7241379 14.2068966,12.2068966 14.2758621,12.6206897 L15.1724138,17.6551724 L10.6206897,15.2413793 C10.4137931,15.1034483 10.137931,15.1034483 10,15.1034483 C9.86206897,15.1034483 9.5862069,15.1034483 9.37931034,15.2413793 L4.82758621,17.6551724 L5.72413793,12.6206897 C5.79310345,12.2068966 5.65517241,11.7241379 5.31034483,11.4482759 L1.65517241,7.86206897 L6.68965517,7.10344828 C7.10344828,7.03448276 7.51724138,6.75862069 7.72413793,6.34482759 L10,1.72413793 L10,1.72413793 Z M10,0.344827586 C9.93103448,0.344827586 9.86206897,0.413793103 9.86206897,0.482758621 L7.10344828,6 C7.03448276,6.13793103 6.82758621,6.34482759 6.62068966,6.34482759 L0.482758621,7.24137931 C0.275862069,7.24137931 0.275862069,7.37931034 0.413793103,7.51724138 L4.82758621,11.7931034 C4.96551724,11.9310345 5.03448276,12.2068966 5.03448276,12.3448276 L4,18.4137931 C4,18.5517241 4,18.6206897 4.13793103,18.6206897 C4.20689655,18.6206897 4.20689655,18.6206897 4.27586207,18.5517241 L9.72413793,15.6551724 C9.79310345,15.5862069 9.93103448,15.5862069 10,15.5862069 C10.137931,15.5862069 10.2068966,15.5862069 10.2758621,15.6551724 L15.7241379,18.5517241 C15.7931034,18.5517241 15.7931034,18.6206897 15.862069,18.6206897 C15.9310345,18.6206897 16,18.5517241 16,18.4137931 L14.9655172,12.3448276 C14.9655172,12.137931 15.0344828,11.9310345 15.1724138,11.7931034 L19.5862069,7.51724138 C19.7241379,7.37931034 19.6551724,7.24137931 19.5172414,7.24137931 L13.3793103,6.34482759 C13.1724138,6.34482759 12.9655172,6.13793103 12.8965517,6 L10.137931,0.482758621 C10.137931,0.344827586 10.0689655,0.344827586 10,0.344827586 L10,0.344827586 L10,0.344827586 Z"
                          id="Shape"></path>
                </g>
            </g>
        </g>
    </g>
</svg>