<?xml version="1.0" encoding="UTF-8" standalone="no"?>
<svg xmlns:sketch="http://www.bohemiancoding.com/sketch/ns" width="22px" height="19px" viewBox="0 0 22 19" version="1.1"
     xmlns="http://www.w3.org/2000/svg">
    <!-- Generator: Sketch 3.5.2 (25235) - http://www.bohemiancoding.com/sketch -->
    <title>XMLID_141_</title>
    <desc>Created with Sketch.</desc>
    <defs></defs>
    <g id="Page-1" stroke="none" stroke-width="1" fill="none" fill-rule="evenodd" sketch:type="MSPage">
        <g id="bg" sketch:type="MSArtboardGroup" transform="translate(-672.000000, -504.000000)" fill="#727171">
            <g id="bar-service" sketch:type="MSLayerGroup" transform="translate(672.000000, 503.683716)">
                <g id="XMLID_141_" sketch:type="MSShapeGroup">
                    <g id="XMLID_120_" transform="translate(4.000000, 2.000000)">
                        <path d="M7.06666667,15.0666667 C3.2,15.0666667 0.0666666667,11.8 0.0666666667,7.8 C0.0666666667,3.8 3.2,0.533333333 7.06666667,0.533333333 C10.9333333,0.533333333 14.0666667,3.8 14.0666667,7.8 C14.0666667,11.8 10.8666667,15.0666667 7.06666667,15.0666667 L7.06666667,15.0666667 Z M7.06666667,1.2 C3.6,1.2 0.733333333,4.13333333 0.733333333,7.8 C0.733333333,11.4666667 3.53333333,14.4 7.06666667,14.4 C10.5333333,14.4 13.4,11.4666667 13.4,7.8 C13.4,4.13333333 10.5333333,1.2 7.06666667,1.2 L7.06666667,1.2 Z"
                              id="XMLID_226_"></path>
                    </g>
                    <g id="XMLID_152_" transform="translate(14.000000, 12.000000)">
                        <path d="M0.6,6.33333333 L0.333333333,5.73333333 C2.46666667,4.73333333 4.13333333,2.86666667 4.86666667,0.533333333 L5.53333333,0.733333333 C4.73333333,3.26666667 2.93333333,5.26666667 0.6,6.33333333 L0.6,6.33333333 Z"
                              id="XMLID_225_"></path>
                    </g>
                    <g id="XMLID_153_" transform="translate(2.000000, 0.000000)">
                        <path d="M17,7.53333333 C16.0666667,3.8 12.7333333,1.13333333 9.06666667,1.13333333 C5.4,1.13333333 2.06666667,3.73333333 1.13333333,7.53333333 L0.466666667,7.4 C1.53333333,3.33333333 5.06666667,0.533333333 9.06666667,0.533333333 C13.0666667,0.533333333 16.6,3.4 17.6666667,7.4 L17,7.53333333 L17,7.53333333 Z"
                              id="XMLID_224_"></path>
                    </g>
                    <g id="XMLID_143_" transform="translate(0.000000, 6.666667)">
                        <path d="M3.13333333,6.26666667 C1.66666667,6.26666667 0.466666667,4.93333333 0.466666667,3.33333333 C0.466666667,1.73333333 1.66666667,0.4 3.13333333,0.4 C3.33333333,0.4 3.46666667,0.533333333 3.46666667,0.733333333 L3.46666667,5.93333333 C3.46666667,6.13333333 3.33333333,6.26666667 3.13333333,6.26666667 L3.13333333,6.26666667 Z M2.8,1.13333333 C1.86666667,1.33333333 1.13333333,2.26666667 1.13333333,3.33333333 C1.13333333,4.46666667 1.86666667,5.4 2.8,5.53333333 L2.8,1.13333333 L2.8,1.13333333 Z"
                              id="XMLID_221_"></path>
                    </g>
                    <g id="XMLID_140_" transform="translate(18.666667, 6.666667)">
                        <path d="M0.333333333,6.26666667 C0.133333333,6.26666667 0,6.13333333 0,5.93333333 L0,0.733333333 C0,0.533333333 0.133333333,0.4 0.333333333,0.4 C1.8,0.4 3,1.73333333 3,3.33333333 C3,5 1.8,6.26666667 0.333333333,6.26666667 L0.333333333,6.26666667 Z M0.666666667,1.13333333 L0.666666667,5.6 C1.6,5.4 2.33333333,4.46666667 2.33333333,3.4 C2.33333333,2.26666667 1.6,1.33333333 0.666666667,1.13333333 L0.666666667,1.13333333 Z"
                              id="XMLID_187_"></path>
                    </g>
                    <g id="XMLID_142_" transform="translate(12.666667, 17.333333)">
                        <path d="M2,0.733333333 C2.06666667,1.06666667 1.8,1.4 1.33333333,1.53333333 C0.866666667,1.66666667 0.533333333,1.46666667 0.466666667,1.06666667 C0.4,0.733333333 0.666666667,0.4 1.13333333,0.266666667 C1.53333333,0.2 1.93333333,0.4 2,0.733333333 L2,0.733333333 Z"
                              id="Shape"></path>
                    </g>
                    <g id="XMLID_168_" transform="translate(6.666667, 12.666667)">
                        <path d="M4.4,2.33333333 C3,2.33333333 1.66666667,1.73333333 0.666666667,0.733333333 C0.533333333,0.6 0.533333333,0.4 0.666666667,0.266666667 C0.8,0.133333333 1,0.133333333 1.13333333,0.266666667 C2.06666667,1.2 3.2,1.66666667 4.4,1.66666667 C5.6,1.66666667 6.8,1.13333333 7.66666667,0.266666667 C7.8,0.133333333 8,0.133333333 8.13333333,0.266666667 C8.26666667,0.4 8.26666667,0.6 8.13333333,0.733333333 C7.13333333,1.73333333 5.8,2.33333333 4.4,2.33333333 L4.4,2.33333333 Z"
                              id="XMLID_180_"></path>
                    </g>
                </g>
            </g>
        </g>
    </g>
</svg>