<?xml version="1.0" encoding="UTF-8" standalone="no"?>
<svg xmlns:sketch="http://www.bohemiancoding.com/sketch/ns" width="60px" height="60px" viewBox="0 0 60 60" version="1.1"
     xmlns="http://www.w3.org/2000/svg">
    <!-- Generator: Sketch 3.3.2 (12043) - http://www.bohemiancoding.com/sketch -->
    <title>icon-close-o</title>
    <desc>Created with Sketch.</desc>
    <defs></defs>
    <g id="Page-1" stroke="none" stroke-width="1" fill="none" fill-rule="evenodd" sketch:type="MSPage">
        <g id="close-o" sketch:type="MSLayerGroup" transform="translate(5.000000, 5.000000)" fill="#FD555D">
            <path d="M25,0 C11.2143331,0 0,11.2143331 0,25 C0,38.7856669 11.2143331,50 25,50 C38.7856669,50 50,38.7856669 50,25 C50,11.2143331 38.7856669,0 25,0 Z M25,1 C11.7657598,1 1,11.7657598 1,25 C1,38.2342402 11.7657598,49 25,49 C38.2342402,49 49,38.2342402 49,25 C49,11.7657598 38.2342402,1 25,1 Z"
                  id="Path-Copy" sketch:type="MSShapeGroup"></path>
            <path d="M25,27.0546875 L36.4734375,38.528125 L38.5265625,36.471875 L27.0546875,25 L38.5265625,13.528125 L36.4734375,11.471875 L25,22.9453125 L13.5265625,11.471875 L11.4734375,13.528125 L22.9453125,25 L11.4734375,36.471875 L13.5265625,38.528125 L25,27.0546875 Z"
                  id="Path" sketch:type="MSShapeGroup"></path>
        </g>
    </g>
</svg>