<svg xmlns="http://www.w3.org/2000/svg" viewBox="0 0 16 16" version="1.1">
    <g>
        <path d="M 4.703125 2 C 4.269531 2 3.859375 2.1875 3.574219 2.511719 L 2.371094 3.890625 C 2.371094 3.886719 2.371094 3.886719 2.367188 3.890625 C 2.132813 4.160156 2 4.515625 2 4.875 L 2 12.5 C 2 13.324219 2.675781 14 3.5 14 L 12.5 14 C 13.324219 14 14 13.324219 14 12.5 L 14 4.875 C 14 4.515625 13.867188 4.160156 13.628906 3.890625 C 13.628906 3.886719 13.628906 3.886719 13.628906 3.890625 L 12.425781 2.511719 C 12.140625 2.1875 11.726563 2 11.296875 2 Z M 4.703125 3 L 11.296875 3 C 11.441406 3 11.578125 3.0625 11.671875 3.171875 L 12.398438 4 L 3.601563 4 L 4.328125 3.171875 C 4.421875 3.0625 4.558594 3 4.703125 3 Z M 3 5 L 13 5 L 13 12.5 C 13 12.78125 12.78125 13 12.5 13 L 3.5 13 C 3.21875 13 3 12.78125 3 12.5 Z M 6 6 L 6 7 L 10 7 L 10 6 Z M 9.5 8 L 9 9 L 9 10 L 10 10 L 10 9 Z M 11.5 8 L 11 9 L 11 10 L 12 10 L 12 9 Z M 9 11 L 9 12 L 12 12 L 12 11 Z "></path>
    </g>
</svg>