<?xml version="1.0" encoding="utf-8"?>
<!-- Generator: Adobe Illustrator 17.0.0, SVG Export Plug-In . SVG Version: 6.00 Build 0)  -->
<!DOCTYPE svg PUBLIC "-//W3C//DTD SVG 1.1//EN" "http://www.w3.org/Graphics/SVG/1.1/DTD/svg11.dtd">
<svg version="1.1" id="图层_1"
     xmlns="http://www.w3.org/2000/svg" x="0px" y="0px" width="60px"
     height="60px"
     viewBox="0 0 60 60" enable-background="new 0 0 60 60" xml:space="preserve">
<title>icon-gift</title>
    <desc>Created with Sketch.</desc>
    <g>
	<path fill="#FD555D" d="M56.818,17.859H35.933c5.743-2.541,12.672-7.021,7.731-12.549C36.5-1.613,32.567,8.085,30.817,14.762
		c-1.657-6.495-5.43-15.813-12.672-9.47c-5.204,5.12,2.241,9.879,8.041,12.567H3.182c-1.284,0-2.321,1.046-2.321,2.337v1.239
		c0,1.293,1.039,2.337,2.321,2.337h53.636c1.284,0,2.32-1.046,2.32-2.337v-1.239C59.139,18.903,58.1,17.859,56.818,17.859z
		 M21.198,8.272c5.243-5.38,7.545,8.7,7.545,8.7S16.986,12.873,21.198,8.272z M40.174,8.272c4.212,4.601-7.545,8.7-7.545,8.7
		S34.931,2.893,40.174,8.272z"/>
        <path fill="#FD555D" d="M6.689,25.743V56.92c0,1.29,1.042,2.33,2.328,2.33h41.966c1.289,0,2.328-1.043,2.328-2.33V25.743H6.689z
		 M38.781,42.947c-3.114,4.021-6.787,7.062-7.492,7.812c-0.679,0.68-1.583,0.929-2.647,0c-0.57-0.64-5.617-4.584-7.515-7.678
		c-0.133-0.148-1.893-3.769,0.118-6.67c2.355-3.246,5.802-4.485,8.749,1.145c2.818-5.509,6.943-4.556,8.825-1.23
		C40.701,39.653,39.072,42.525,38.781,42.947z"/>
</g>
</svg>
