<?xml version="1.0" encoding="UTF-8" standalone="no"?>
<svg xmlns:sketch="http://www.bohemiancoding.com/sketch/ns" width="26px" height="20px" viewBox="0 0 26 20" version="1.1"
     xmlns="http://www.w3.org/2000/svg">
    <!-- Generator: Sketch 3.5.2 (25235) - http://www.bohemiancoding.com/sketch -->
    <title>Group 2</title>
    <desc>Created with Sketch.</desc>
    <defs></defs>
    <g id="Page-1" stroke="none" stroke-width="1" fill="none" fill-rule="evenodd" sketch:type="MSPage">
        <g id="bg" sketch:type="MSArtboardGroup" transform="translate(-534.000000, -396.000000)" fill="#191919">
            <g id="Group-4-Copy" sketch:type="MSLayerGroup" transform="translate(525.000000, 384.000000)">
                <g id="Group-2" transform="translate(9.000000, 12.000000)" sketch:type="MSShapeGroup">
                    <g id="XMLID_195_-Copy">
                        <path d="M23.6516129,15.6 L9.64516129,15.6 C8.55483871,15.6 7.46451613,14.7612903 7.12903226,13.6709677 L4.44516129,2.68387097 C4.27741935,2.01290323 3.52258065,1.34193548 2.76774194,1.34193548 L0.670967742,1.34193548 C0.419354839,1.34193548 0.251612903,1.17419355 0.251612903,0.922580645 C0.251612903,0.670967742 0.419354839,0.503225806 0.670967742,0.503225806 L2.8516129,0.503225806 C3.94193548,0.503225806 5.03225806,1.34193548 5.36774194,2.43225806 L8.0516129,13.4193548 C8.21935484,14.0903226 8.97419355,14.7612903 9.72903226,14.7612903 L23.6516129,14.7612903 C23.9032258,14.7612903 24.0709677,14.9290323 24.0709677,15.1806452 C24.0709677,15.4322581 23.8193548,15.6 23.6516129,15.6 L23.6516129,15.6 Z"
                              id="XMLID_192_"></path>
                    </g>
                    <g id="XMLID_196_-Copy" transform="translate(6.709677, 2.516129)">
                        <path d="M3.77419355,10.9032258 C3.52258065,10.9032258 3.35483871,10.7354839 3.35483871,10.5677419 C3.35483871,10.316129 3.52258065,10.1483871 3.69032258,10.0645161 L14.5096774,8.80645161 C15.2645161,8.72258065 16.1032258,8.0516129 16.3548387,7.29677419 L17.7806452,2.6 C17.8645161,2.26451613 17.8645161,2.01290323 17.6967742,1.84516129 C17.5290323,1.67741935 17.2774194,1.50967742 17.0258065,1.50967742 L0.587096774,1.50967742 C0.335483871,1.50967742 0.167741935,1.34193548 0.167741935,1.09032258 C0.167741935,0.838709677 0.335483871,0.670967742 0.587096774,0.670967742 L17.0258065,0.670967742 C17.6129032,0.670967742 18.116129,0.922580645 18.3677419,1.34193548 C18.7032258,1.76129032 18.7032258,2.26451613 18.5354839,2.8516129 L17.1096774,7.5483871 C16.7741935,8.55483871 15.683871,9.47741935 14.5935484,9.64516129 L3.77419355,10.9032258 L3.77419355,10.9032258 L3.77419355,10.9032258 Z"
                              id="XMLID_186_"></path>
                    </g>
                    <g id="XMLID_40_-Copy" transform="translate(9.225806, 15.935484)">
                        <ellipse id="Oval" cx="1.92903226" cy="1.92903226" rx="1.42580645" ry="1.42580645"></ellipse>
                    </g>
                    <g id="XMLID_204_-Copy" transform="translate(18.451613, 15.935484)">
                        <ellipse id="Oval" cx="1.92903226" cy="1.92903226" rx="1.42580645" ry="1.42580645"></ellipse>
                    </g>
                </g>
            </g>
        </g>
    </g>
</svg>