<?xml version="1.0" encoding="UTF-8" standalone="no"?>
<svg xmlns:sketch="http://www.bohemiancoding.com/sketch/ns" width="60px" height="60px" viewBox="0 0 60 60" version="1.1"
     xmlns="http://www.w3.org/2000/svg">
    <!-- Generator: Sketch 3.3.2 (12043) - http://www.bohemiancoding.com/sketch -->
    <title>icon-store</title>
    <desc>Created with Sketch.</desc>
    <defs></defs>
    <g id="Page-1" stroke="none" stroke-width="1" fill="none" fill-rule="evenodd" sketch:type="MSPage">
        <path d="M54.4786957,24.9472563 L54.4786957,22.0477551 C54.4786957,21.821594 54.426722,21.601232 54.325662,21.3982669 L48.550805,9.80026231 C48.3053736,9.31024662 47.8058485,9 47.2601245,9 L12.6109827,9 C12.0652587,9 11.5628461,9.31024662 11.3203021,9.80026231 L5.54544517,21.3982669 C5.44438517,21.5983325 5.39241146,21.821594 5.39241146,22.0477551 L5.39241146,24.9472563 C5.39241146,27.3132492 6.52717085,29.418287 8.27983994,30.7433591 L8.27983994,49.593016 L6.8361257,49.593016 C6.03919544,49.593016 5.39241146,50.2425042 5.39241146,51.0427665 C5.39241146,51.8430289 6.03919544,52.4925171 6.8361257,52.4925171 L53.0349815,52.4925171 C53.8319117,52.4925171 54.4786957,51.8430289 54.4786957,51.0427665 C54.4786957,50.2425042 53.8319117,49.593016 53.0349815,49.593016 L51.5912672,49.593016 L51.5912672,30.7433591 C53.3439363,29.418287 54.4786957,27.3161487 54.4786957,24.9472563 L54.4786957,24.9472563 Z M35.7104106,29.296508 C33.3225072,29.296508 31.3792678,27.3451437 31.3792678,24.9472563 L31.3792678,23.4975057 L40.0415533,23.4975057 L40.0415533,24.9472563 C40.0415533,27.3451437 38.0983139,29.296508 35.7104106,29.296508 L35.7104106,29.296508 Z M8.27983994,24.9472563 L8.27983994,23.4975057 L16.9421254,23.4975057 L16.9421254,24.9472563 C16.9421254,27.3451437 14.998886,29.296508 12.6109827,29.296508 C10.2230793,29.296508 8.27983994,27.3451437 8.27983994,24.9472563 L8.27983994,24.9472563 Z M28.4918393,11.8995011 L28.4918393,20.5980046 L20.2337939,20.5980046 L22.3993652,11.8995011 L28.4918393,11.8995011 L28.4918393,11.8995011 Z M37.4717419,11.8995011 L39.6373133,20.5980046 L31.3792678,20.5980046 L31.3792678,11.8995011 L37.4717419,11.8995011 L37.4717419,11.8995011 Z M19.8295539,23.4975057 L28.4918393,23.4975057 L28.4918393,24.9472563 C28.4918393,27.3451437 26.5486,29.296508 24.1606966,29.296508 C21.7727933,29.296508 19.8295539,27.3451437 19.8295539,24.9472563 L19.8295539,23.4975057 L19.8295539,23.4975057 Z M42.9289818,23.4975057 L51.5912672,23.4975057 L51.5912672,24.9472563 C51.5912672,27.3451437 49.6480278,29.296508 47.2601245,29.296508 C44.8722211,29.296508 42.9289818,27.3451437 42.9289818,24.9472563 L42.9289818,23.4975057 L42.9289818,23.4975057 Z M50.6990518,20.5980046 L42.6113646,20.5980046 L40.4457933,11.8995011 L46.3679091,11.8995011 L50.6990518,20.5980046 L50.6990518,20.5980046 Z M13.5031981,11.8995011 L19.4253139,11.8995011 L17.2597425,20.5980046 L9.17205534,20.5980046 L13.5031981,11.8995011 L13.5031981,11.8995011 Z M11.1672684,32.0510341 C11.6350318,32.1467176 12.1172324,32.1960091 12.6109827,32.1960091 C14.9700117,32.1960091 17.0691723,31.0536057 18.3858396,29.290709 C19.702507,31.0536057 21.8016675,32.1960091 24.1606966,32.1960091 C26.5197257,32.1960091 28.6188862,31.0536057 29.9355536,29.290709 C30.9779153,30.6824695 32.5053649,31.6885964 34.2666963,32.0481346 L34.2666963,49.5901165 L11.1672684,49.5901165 L11.1672684,32.0481346 L11.1672684,32.0510341 Z M48.7038387,49.593016 L37.1541248,49.593016 L37.1541248,32.0510341 C38.9154562,31.6914959 40.4429058,30.685369 41.4852675,29.2936085 C42.8019349,31.0565052 44.9010954,32.1989086 47.2601245,32.1989086 C47.7538748,32.1989086 48.2360753,32.1496171 48.7038387,32.0539336 L48.7038387,49.5959155 L48.7038387,49.593016 Z M43.4210526,38.2615641 C43.4210526,39.0618264 42.7742687,39.7113147 41.9773384,39.7113147 C41.1804081,39.7113147 40.5336241,39.0618264 40.5336241,38.2615641 C40.5336241,37.4613018 41.1804081,36.8118135 41.9773384,36.8118135 C42.7742687,36.8118135 43.4210526,37.4613018 43.4210526,38.2615641 Z M15.990482,39.7113147 C15.6208912,39.7113147 15.2513003,39.5692391 14.9683323,39.2879875 C14.4052838,38.7225848 14.4052838,37.8034429 14.9683323,37.2380402 L17.8557608,34.3385391 C18.4188094,33.7731363 19.3341242,33.7731363 19.8971728,34.3385391 C20.4602213,34.9039418 20.4602213,35.8230837 19.8971728,36.3884864 L17.0097443,39.2879875 C16.7267763,39.5721386 16.3571854,39.7113147 15.9875946,39.7113147 L15.990482,39.7113147 Z M18.8779105,45.510317 C18.5083197,45.510317 18.1387288,45.3682414 17.8557608,45.0869898 C17.2927123,44.5215871 17.2927123,43.6024452 17.8557608,43.0370425 L26.5180463,34.3385391 C27.0810948,33.7731363 27.9964097,33.7731363 28.5594582,34.3385391 C29.1225068,34.9039418 29.1225068,35.8230837 28.5594582,36.3884864 L19.8971728,45.0869898 C19.6142048,45.3711409 19.2446139,45.510317 18.8750231,45.510317 L18.8779105,45.510317 Z M27.540196,45.510317 C27.1706051,45.510317 26.8010143,45.3682414 26.5180463,45.0869898 C25.9549977,44.5215871 25.9549977,43.6024452 26.5180463,43.0370425 L29.4054748,40.1375413 C29.9685233,39.5721386 30.8838381,39.5721386 31.4468867,40.1375413 C32.0099353,40.7029441 32.0099353,41.6220859 31.4468867,42.1874887 L28.5594582,45.0869898 C28.2764902,45.3711409 27.9068994,45.510317 27.5373085,45.510317 L27.540196,45.510317 Z"
              id="store" fill="#FFFFFF" sketch:type="MSShapeGroup"></path>
    </g>
</svg>