<?xml version="1.0" encoding="UTF-8" standalone="no"?>
<svg xmlns:sketch="http://www.bohemiancoding.com/sketch/ns" width="60px" height="60px" viewBox="0 0 60 60" version="1.1"
     xmlns="http://www.w3.org/2000/svg">
    <!-- Generator: Sketch 3.3.2 (12043) - http://www.bohemiancoding.com/sketch -->
    <title>icon-git-true</title>
    <desc>Created with Sketch.</desc>
    <defs></defs>
    <g id="Page-1" stroke="none" stroke-width="1" fill="none" fill-rule="evenodd" sketch:type="MSPage">
        <g id="gift" sketch:type="MSLayerGroup" transform="translate(5.000000, 5.000000)">
            <path d="M44.4444444,50 L5.55555556,50 C4.02777778,50 2.77777778,48.75 2.77777778,47.2222222 L2.77777778,19.4444444 L47.2222222,19.4444444 L47.2222222,47.2222222 C47.2222222,48.75 45.9722222,50 44.4444444,50 L44.4444444,50 Z"
                  id="Shape" fill="#D32F2F" sketch:type="MSShapeGroup"></path>
            <path d="M50,19.4444444 L0,19.4444444 L0,11.1111111 C0,9.58333333 1.25,8.33333333 2.77777778,8.33333333 L47.2222222,8.33333333 C48.75,8.33333333 50,9.58333333 50,11.1111111 L50,19.4444444 L50,19.4444444 Z"
                  id="Shape" fill="#F44336" sketch:type="MSShapeGroup"></path>
            <rect id="Rectangle-path" fill="#FF8F00" sketch:type="MSShapeGroup" x="22.2222222" y="19.4444444"
                  width="5.55555556" height="30.5555556"></rect>
            <path d="M36.1111111,0 L30.5555556,0 L22.2222222,8.33333333 L27.7777778,8.33333333 L36.1111111,0 Z"
                  id="Shape" fill="#FF8F00" sketch:type="MSShapeGroup"></path>
            <path d="M19.4444444,0 L13.8888889,0 L22.2222222,8.33333333 L22.2222222,19.4444444 L27.7777778,19.4444444 L27.7777778,8.33333333 L19.4444444,0 Z"
                  id="Shape" fill="#FFC107" sketch:type="MSShapeGroup"></path>
        </g>
    </g>
</svg>