<?xml version="1.0" encoding="UTF-8" standalone="no"?>
<svg xmlns:sketch="http://www.bohemiancoding.com/sketch/ns" width="60px" height="60px" viewBox="0 0 60 60" version="1.1"
     xmlns="http://www.w3.org/2000/svg">
    <!-- Generator: Sketch 3.3.2 (12043) - http://www.bohemiancoding.com/sketch -->
    <title>icon-home</title>
    <desc>Created with Sketch.</desc>
    <defs></defs>
    <g id="Page-1" stroke="none" stroke-width="1" fill="none" fill-rule="evenodd" sketch:type="MSPage">
        <path d="M54.6806096,32.5715988 L32.6067295,8.17507347 C31.9216866,7.4175261 30.9966288,7 30.0015666,7 L30.0015666,7 C29.0090045,7 28.0839467,7.4175261 27.3964037,8.17507347 L5.32252364,32.5715988 C4.85999472,33.0841308 4.89999722,33.8741802 5.41002911,34.3367091 C5.65004412,34.5542227 5.95006288,34.6592293 6.24758148,34.6592293 C6.58760274,34.6592293 6.92762399,34.5217207 7.17513947,34.2467035 L12.4979723,28.3638357 L12.4979723,48.410089 C12.4979723,50.4777183 14.1805775,52.1603235 16.2482067,52.1603235 L43.7499262,52.1603235 C45.8175554,52.1603235 47.5001606,50.4777183 47.5001606,48.410089 L47.5001606,28.3638357 L52.8229934,34.2467035 C53.2855223,34.7592355 54.0755717,34.799238 54.5881038,34.334209 C55.1006358,33.8691799 55.1406383,33.0816306 54.6756092,32.5690986 L54.6806096,32.5715988 Z M35.0018792,49.6601672 L25.001254,49.6601672 L25.001254,38.4094637 C25.001254,37.7194206 25.561289,37.1593856 26.2513321,37.1593856 L33.7518011,37.1593856 C34.4418442,37.1593856 35.0018792,37.7194206 35.0018792,38.4094637 L35.0018792,49.6601672 L35.0018792,49.6601672 Z M45.0025045,48.410089 C45.0025045,49.1001321 44.4424695,49.6601672 43.7524263,49.6601672 L37.5020355,49.6601672 L37.5020355,38.4094637 C37.5020355,36.3418345 35.8194303,34.6592293 33.7518011,34.6592293 L26.2513321,34.6592293 C24.1837029,34.6592293 22.5010977,36.3418345 22.5010977,38.4094637 L22.5010977,49.6601672 L16.2507069,49.6601672 C15.5606637,49.6601672 15.0006287,49.1001321 15.0006287,48.410089 L15.0006287,25.601163 L29.2515197,9.8501782 C29.4565325,9.62266397 29.7240492,9.49765616 30.0015666,9.49765616 C30.2790839,9.49765616 30.5466007,9.62266397 30.7516135,9.8501782 L45.0025045,25.601163 L45.0025045,48.410089 L45.0025045,48.410089 Z"
              id="home-copy" fill="#FFFFFF" sketch:type="MSShapeGroup"></path>
    </g>
</svg>