<?xml version="1.0" encoding="UTF-8" standalone="no"?>
<svg xmlns:sketch="http://www.bohemiancoding.com/sketch/ns" width="60px" height="60px" viewBox="0 0 60 60" version="1.1"
     xmlns="http://www.w3.org/2000/svg">
    <!-- Generator: Sketch 3.3.2 (12043) - http://www.bohemiancoding.com/sketch -->
    <title>icon-location</title>
    <desc>Created with Sketch.</desc>
    <defs></defs>
    <g id="Page-1" stroke="none" stroke-width="1" fill="none" fill-rule="evenodd" sketch:type="MSPage">
        <g id="location" sketch:type="MSLayerGroup" transform="translate(11.338028, 6.000000)" fill="#585858">
            <path d="M17.4850907,49.2283784 L16.5355158,48.1148649 C15.8643573,47.3283784 0.0941504885,28.7148649 0.0941504885,17.5675676 C0.0941504885,7.93378378 7.89519097,0.0945945946 17.4850907,0.0945945946 C27.0749905,0.0945945946 34.876031,7.93378378 34.876031,17.5675676 C34.876031,28.7148649 19.1058241,47.3283784 18.4346657,48.1148649 L17.4850907,49.2283784 L17.4850907,49.2283784 Z M17.4850907,2.60810811 C9.27382312,2.60810811 2.59586347,9.31891892 2.59586347,17.5675676 C2.59586347,26.3148649 14.064738,41.1108108 17.4850907,45.3283784 C20.9040985,41.1108108 32.374318,26.3094595 32.374318,17.5675676 C32.374318,9.31891892 25.6963583,2.60810811 17.4850907,2.60810811 L17.4850907,2.60810811 Z"
                  id="Fill-55" sketch:type="MSShapeGroup"></path>
            <path d="M17.4850907,24.2297297 C13.8280167,24.2297297 10.8542063,21.2405405 10.8542063,17.5675676 C10.8542063,13.8945946 13.8280167,10.9054054 17.4850907,10.9054054 C21.1421647,10.9054054 24.1159751,13.8945946 24.1159751,17.5675676 C24.1159751,21.2405405 21.1421647,24.2297297 17.4850907,24.2297297 L17.4850907,24.2297297 Z M17.4850907,13.4189189 C15.2093389,13.4189189 13.3559193,15.2797297 13.3559193,17.5675676 C13.3559193,19.8554054 15.2093389,21.7162162 17.4850907,21.7162162 C19.7608425,21.7162162 21.6142621,19.8554054 21.6142621,17.5675676 C21.6142621,15.2797297 19.7608425,13.4189189 17.4850907,13.4189189 L17.4850907,13.4189189 Z"
                  id="Fill-56" sketch:type="MSShapeGroup"></path>
        </g>
    </g>
</svg>