<?xml version="1.0" encoding="UTF-8" standalone="no"?>
<svg xmlns:sketch="http://www.bohemiancoding.com/sketch/ns" width="60px" height="60px" viewBox="0 0 60 60" version="1.1"
     xmlns="http://www.w3.org/2000/svg">
    <!-- Generator: Sketch 3.3.2 (12043) - http://www.bohemiancoding.com/sketch -->
    <title>icon-weibo</title>
    <desc>Created with Sketch.</desc>
    <defs></defs>
    <g id="Page-1" stroke="none" stroke-width="1" fill="none" fill-rule="evenodd" sketch:type="MSPage">
        <path d="M30,60 C46.5685433,60 60,46.5685433 60,30 C60,13.4314567 46.5685433,0 30,0 C13.4314567,0 0,13.4314567 0,30 C0,46.5685433 13.4314567,60 30,60 Z M27,45.6 C37.2724969,45.6 45.5198544,40.2274173 45.5198547,33.6 C45.5198547,28.0011612 38.5085335,28.0011612 38.5085335,27.6397522 C38.5085335,27.2783432 42,24.0256691 38.5085335,22.001782 C35.0170669,19.977895 28.6307373,23.0549479 28.8227898,22.7245989 C31.5694931,18 27.6435548,16.5083748 25.6423954,16.5083748 C20.8718044,16.5083748 8.4,26.9725827 8.4,33.6 C8.4,40.2274173 16.7275031,45.6 27,45.6 Z M27.4855502,41.9240909 C34.0484699,41.0017327 38.8827497,36.7958206 38.2832168,32.5299228 C37.683684,28.2640249 31.8773696,25.5535508 25.3144498,26.4759091 C18.7515301,27.3982673 13.9172503,31.6041794 14.5167832,35.8700772 C15.116316,40.1359751 20.9226304,42.8464492 27.4855502,41.9240909 Z M26.2725723,40.7620448 C30.1759641,40.0033023 32.8277195,36.7512834 32.195434,33.4984569 C31.5631486,30.2456304 27.8862562,28.2237761 23.9828644,28.9825186 C20.0794726,29.7412611 17.4277172,32.9932799 18.0600026,36.2461064 C18.692288,39.4989329 22.3691805,41.5207873 26.2725723,40.7620448 Z M26.4,34.8 C27.0627417,34.8 27.6,34.2627417 27.6,33.6 C27.6,32.9372583 27.0627417,32.4 26.4,32.4 C25.7372583,32.4 25.2,32.9372583 25.2,33.6 C25.2,34.2627417 25.7372583,34.8 26.4,34.8 Z M23.6329945,37.5373257 C24.8342905,36.9771522 25.4675505,35.7926599 25.0474204,34.8916879 C24.6272902,33.9907159 23.3128648,33.7144442 22.1115688,34.2746177 C20.9102728,34.8347912 20.2770128,36.0192836 20.697143,36.9202555 C21.1172731,37.8212275 22.4316986,38.0974993 23.6329945,37.5373257 Z M43.0622784,19.1105151 C40.8938284,17.1589097 38.1869847,17.858603 38.1869847,17.858603 C37.6418881,17.9366944 37.2,18.4550007 37.2,19.0010649 L37.2,19.049112 C37.2,19.6019848 37.6396558,20.0189006 38.1949131,20.0073286 C38.1949131,20.0073286 40.4601384,19.6887688 41.616645,21.0621204 C42.7731514,22.4354721 41.9037025,24.5131311 41.9037025,24.5131311 C41.745165,25.0423146 42.0573127,25.4713025 42.6165121,25.4713025 L43.1466365,25.4713024 C43.6988479,25.4713024 44.2352576,25.034846 44.3197023,24.4851645 C44.3197023,24.4851645 45.2307283,21.0621205 43.0622784,19.1105151 Z M47.1100525,15.2073046 C43.1345607,11.448657 37.5017402,11.9782249 37.5017402,11.9782249 C36.672352,11.990251 36,12.6801868 36,13.4909781 L36,13.7163265 C36,14.5397709 36.6800263,15.1708249 37.493335,15.1626826 C37.493335,15.1626826 42.9177154,14.5764717 45.3030104,18.0000003 C47.6883053,21.4235289 46.6802788,25.5131147 46.6802788,25.5131147 C46.5583552,26.3283435 47.1339964,26.9892171 47.9565855,26.9892171 L48.1428419,26.9892171 C48.9696503,26.9892171 49.7348885,26.3264601 49.8188707,25.5012787 C49.8188707,25.5012787 51.0855446,18.9659518 47.1100525,15.2073046 Z"
              id="sina_weibo_c" fill="#F56467" sketch:type="MSShapeGroup"></path>
    </g>
</svg>