<?xml version="1.0" encoding="UTF-8" standalone="no"?>
<svg xmlns:sketch="http://www.bohemiancoding.com/sketch/ns" width="32px" height="32px" viewBox="0 0 32 32" version="1.1"
     xmlns="http://www.w3.org/2000/svg">
    <!-- Generator: Sketch 3.5.2 (25235) - http://www.bohemiancoding.com/sketch -->
    <title>icon-tabbar-designer-select</title>
    <desc>Created with Sketch.</desc>
    <defs></defs>
    <g id="Page-1" stroke="none" stroke-width="1" fill="none" fill-rule="evenodd" sketch:type="MSPage">
        <g id="bg" sketch:type="MSArtboardGroup" transform="translate(-869.000000, -228.000000)" fill="#EA555F">
            <g id="Group" sketch:type="MSLayerGroup" transform="translate(875.000000, 234.000000)">
                <g id="XMLID_950_" sketch:type="MSShapeGroup">
                    <path d="M10.1826316,0.914210526 C15.2642105,0.914210526 19.3984211,5.04842105 19.3984211,10.13 C19.3984211,15.2115789 15.2642105,19.3457895 10.1826316,19.3457895 C5.10105263,19.3457895 0.966842105,15.2115789 0.966842105,10.13 C0.966842105,5.04842105 5.10105263,0.914210526 10.1826316,0.914210526 L10.1826316,0.914210526 Z M10.1826316,0.367894737 C4.79105263,0.367894737 0.420526316,4.73842105 0.420526316,10.13 C0.420526316,15.5215789 4.79105263,19.8921053 10.1826316,19.8921053 C15.5742105,19.8921053 19.9447368,15.5215789 19.9447368,10.13 C19.9447368,4.73842105 15.5742105,0.367894737 10.1826316,0.367894737 L10.1826316,0.367894737 L10.1826316,0.367894737 Z"
                          id="Shape"></path>
                </g>
                <g transform="translate(4.736842, 3.157895)" sketch:type="MSShapeGroup">
                    <g id="XMLID_944_" transform="translate(0.000000, 8.421053)">
                        <path d="M2.14368421,4.80526316 C1.95631579,4.69684211 1.79947368,4.53526316 1.71473684,4.34368421 L0.124210526,0.734736842 C0.0631578947,0.596842105 0.125789474,0.435263158 0.264210526,0.374736842 C0.402105263,0.313684211 0.563684211,0.376315789 0.624210526,0.514736842 L2.21473684,4.12368421 C2.28789474,4.28947368 2.51894737,4.42210526 2.69894737,4.40315789 L6.62,3.97631579 C6.77,3.96 6.90473684,4.06842105 6.92105263,4.21842105 C6.93736842,4.36842105 6.82894737,4.50315789 6.67894737,4.51947368 L2.75789474,4.94631579 C2.55,4.96842105 2.33157895,4.91368421 2.14368421,4.80526316 L2.14368421,4.80526316 Z"
                              id="Shape"></path>
                    </g>
                    <g id="XMLID_942_" transform="translate(2.105263, 0.526316)">
                        <path d="M0.567894737,7.56368421 C0.437368421,7.48842105 0.392631579,7.32105263 0.467894737,7.19052632 L4.44210526,0.306842105 C4.51736842,0.176315789 4.68473684,0.131578947 4.81526316,0.206842105 C4.94578947,0.282105263 4.99052632,0.449473684 4.91526316,0.58 L0.941052632,7.46368421 C0.865789474,7.59473684 0.698947368,7.63894737 0.567894737,7.56368421 L0.567894737,7.56368421 Z"
                              id="Shape"></path>
                    </g>
                    <g id="XMLID_941_" transform="translate(0.000000, 8.421053)">
                        <path d="M6.51315789,4.48421053 L0.237894737,0.861052632 C0.107368421,0.785789474 0.0626315789,0.618421053 0.137894737,0.487894737 C0.213157895,0.357368421 0.380526316,0.312631579 0.511052632,0.387894737 L6.78631579,4.01105263 C6.91684211,4.08631579 6.96157895,4.25368421 6.88631579,4.38421053 C6.81052632,4.51473684 6.64368421,4.55947368 6.51315789,4.48421053 L6.51315789,4.48421053 Z"
                              id="Shape"></path>
                    </g>
                    <g id="XMLID_936_">
                        <path d="M0.237894737,9.28210526 C0.107368421,9.20684211 0.0626315789,9.03947368 0.137894737,8.90894737 L4.69105263,1.02263158 C5.06736842,0.370526316 5.90473684,0.146315789 6.55684211,0.522631579 L10.9394737,3.05315789 C11.5915789,3.42947368 11.8157895,4.26684211 11.4394737,4.91894737 L7.99684211,10.8821053 C7.92157895,11.0126316 7.75421053,11.0573684 7.62368421,10.9821053 C7.49315789,10.9068421 7.44842105,10.7394737 7.52368421,10.6089474 L10.9663158,4.64578947 C11.1921053,4.25421053 11.0578947,3.75210526 10.6663158,3.52631579 L6.28368421,0.995789474 C5.89210526,0.77 5.39,0.904210526 5.16421053,1.29578947 L0.611052632,9.18210526 C0.535263158,9.31315789 0.368421053,9.35789474 0.237894737,9.28210526 L0.237894737,9.28210526 Z"
                              id="Shape"></path>
                    </g>
                </g>
            </g>
        </g>
    </g>
</svg>