<?xml version="1.0" encoding="UTF-8" standalone="no"?>
<svg xmlns:sketch="http://www.bohemiancoding.com/sketch/ns" width="60px" height="60px" viewBox="0 0 60 60" version="1.1"
     xmlns="http://www.w3.org/2000/svg">
    <!-- Generator: Sketch 3.3.2 (12043) - http://www.bohemiancoding.com/sketch -->
    <title>icon-countdown</title>
    <desc>Created with Sketch.</desc>
    <defs></defs>
    <g id="Page-1" stroke="none" stroke-width="1" fill="none" fill-rule="evenodd" sketch:type="MSPage">
        <path d="M47.1875,5 L44.0625,5 L44.0625,8.125 L47.1875,8.125 C49.7765625,8.125 51.875,10.2234375 51.875,12.8125 L51.875,15.9375 L55,15.9375 L55,12.8125 C55,8.496875 51.503125,5 47.1875,5 L47.1875,5 Z M30,48.75 C19.6453125,48.75 11.25,40.35625 11.25,30 C11.25,19.6453125 19.6453125,11.25 30,11.25 C40.3546875,11.25 48.75,19.6453125 48.75,30 C48.75,40.35625 40.3546875,48.75 30,48.75 L30,48.75 Z M51.875,30 C51.875,17.9203125 42.08125,8.125 30,8.125 C17.91875,8.125 8.125,17.9203125 8.125,30 C8.125,38.2859375 12.7328125,45.4921875 19.525,49.2046875 L14.375,55 L19.0625,55 L23.2578125,50.8046875 C25.3828125,51.49375 27.6453125,51.875 30,51.875 C32.3546875,51.875 34.6171875,51.49375 36.7421875,50.8046875 L40.9375,55 L45.625,55 L40.4765625,49.2046875 C47.2671875,45.4921875 51.875,38.2859375 51.875,30 L51.875,30 Z M40.9375,28.4375 L31.5625,28.4375 L31.5625,17.5 C31.5625,16.6359375 30.8640625,15.9375 30,15.9375 C29.1359375,15.9375 28.4375,16.6359375 28.4375,17.5 L28.4375,30 C28.4375,30.8640625 29.1359375,31.5625 30,31.5625 L40.9375,31.5625 C41.8015625,31.5625 42.5,30.8640625 42.5,30 C42.5,29.1375 41.8015625,28.4375 40.9375,28.4375 L40.9375,28.4375 Z M8.125,12.8125 C8.125,10.2234375 10.2234375,8.125 12.8125,8.125 L15.9375,8.125 L15.9375,5 L12.8125,5 C8.496875,5 5,8.496875 5,12.8125 L5,15.9375 L8.125,15.9375 L8.125,12.8125 L8.125,12.8125 Z"
              id="Fill-167" fill="#FD555D" sketch:type="MSShapeGroup"></path>
    </g>
</svg>