<?xml version="1.0" encoding="UTF-8" standalone="no"?>
<svg xmlns:sketch="http://www.bohemiancoding.com/sketch/ns" width="60px" height="60px" viewBox="0 0 60 60" version="1.1"
     xmlns="http://www.w3.org/2000/svg">
    <!-- Generator: Sketch 3.3.2 (12043) - http://www.bohemiancoding.com/sketch -->
    <title>icon-trash</title>
    <desc>Created with Sketch.</desc>
    <defs></defs>
    <g id="Page-1" stroke="none" stroke-width="1" fill="none" fill-rule="evenodd" sketch:type="MSPage">
        <g id="trash" sketch:type="MSLayerGroup" transform="translate(5.000000, 4.660323)" stroke="#4D4D4D"
           stroke-width="3">
            <path d="M20.7317073,6.09756098 C20.7317073,6.09756098 20.7317073,4.75942542 20.7317073,3.10237005 L20.7317073,2.99519127 C20.7317073,1.340993 22.0655488,2.92555523e-07 23.741388,2.24487573e-07 L26.258612,1.22244899e-07 C27.9208128,5.47309054e-08 29.2682927,1.33813559 29.2682927,2.995191 L29.2682927,6.09756077"
                  id="Path-45" sketch:type="MSShapeGroup"
                  transform="translate(25.000000, 3.048780) scale(-1, 1) translate(-25.000000, -3.048780) "></path>
            <path d="M0.609756098,6.70731707 L49.3902439,6.70731707" id="Line" stroke-linecap="square"
                  sketch:type="MSShapeGroup"></path>
            <path d="M15.2439024,14.0243902 L15.2439024,48.1707317" id="Line" stroke-linecap="square"
                  sketch:type="MSShapeGroup"></path>
            <path d="M25,14.0243902 L25,48.1707317" id="Line-6" stroke-linecap="square"
                  sketch:type="MSShapeGroup"></path>
            <path d="M34.4947267,14.0243902 L34.4947267,48.1707317" id="Line-7" stroke-linecap="square"
                  sketch:type="MSShapeGroup"></path>
            <path d="M6.24729671,12.2981069 L6.25379319,45.9711992 C6.25411298,47.628723 7.59652523,48.9724115 9.25860668,48.9724115 L40.3453439,48.9724115 C42.0045368,48.9724115 43.3495784,47.6265322 43.3495784,45.9775925 L43.349579,12.3762321"
                  id="Path-50" sketch:type="MSShapeGroup"></path>
        </g>
    </g>
</svg>