<?xml version="1.0" encoding="UTF-8" standalone="no"?>
<svg xmlns:sketch="http://www.bohemiancoding.com/sketch/ns" width="60px" height="60px" viewBox="0 0 60 60" version="1.1"
     xmlns="http://www.w3.org/2000/svg">
    <!-- Generator: Sketch 3.3.2 (12043) - http://www.bohemiancoding.com/sketch -->
    <title>icon-star-o</title>
    <desc>Created with Sketch.</desc>
    <defs></defs>
    <g id="Page-1" stroke="none" stroke-width="1" fill="none" fill-rule="evenodd" sketch:type="MSPage">
        <g id="star" sketch:type="MSLayerGroup" transform="translate(5.000000, 5.000000)" fill="#4D4D4D">
            <path d="M39.2605263,46.9687052 C39.0078947,46.9687052 38.7552632,46.8894041 38.5421053,46.7334453 L24.9986842,36.8512097 L11.4578947,46.7334453 C11.0302632,47.0453629 10.4486842,47.0453629 10.0197368,46.7334453 C9.59078947,46.4202061 9.41184211,45.8650986 9.575,45.3588934 L14.7473684,29.3691532 L1.20526316,19.4869176 C0.776315789,19.1736783 0.597368421,18.6185708 0.761842105,18.1123656 C0.925,17.6061604 1.39473684,17.2625224 1.925,17.2625224 L18.6631579,17.2625224 L23.8355263,1.27146057 C24,0.766577061 24.4697368,0.422939068 24.9986842,0.422939068 C25.5289474,0.422939068 25.9986842,0.766577061 26.1631579,1.27146057 L31.3355263,17.2625224 L48.0736842,17.2625224 C48.6039474,17.2625224 49.0736842,17.6061604 49.2368421,18.1123656 C49.4013158,18.6185708 49.2223684,19.1736783 48.7934211,19.4869176 L35.2526316,29.3691532 L40.4236842,45.3588934 C40.5881579,45.8650986 40.4078947,46.4202061 39.9802632,46.7334453 C39.7657895,46.8894041 39.5131579,46.9687052 39.2605263,46.9687052 L39.2605263,46.9687052 Z M24.9986842,34.1021057 C25.2513158,34.1021057 25.5039474,34.1814068 25.7184211,34.3373656 L36.9328947,42.5212366 L32.65,29.2792787 C32.4855263,28.7730735 32.6657895,28.2179659 33.0934211,27.9047267 L44.3078947,19.7208557 L30.4473684,19.7208557 C29.9171053,19.7208557 29.4473684,19.3785394 29.2828947,18.8723342 L24.9986842,5.63037634 L20.7157895,18.8723342 C20.5526316,19.3785394 20.0828947,19.7208557 19.5526316,19.7208557 L5.69078947,19.7208557 L16.9052632,27.9047267 C17.3342105,28.2179659 17.5131579,28.7730735 17.35,29.2792787 L13.0671053,42.5212366 L24.2802632,34.3373656 C24.4947368,34.1814068 24.7473684,34.1021057 24.9986842,34.1021057 L24.9986842,34.1021057 Z"
                  id="Fill-5" sketch:type="MSShapeGroup"></path>
        </g>
    </g>
</svg>