<?xml version="1.0" encoding="UTF-8" standalone="no"?>
<svg xmlns:sketch="http://www.bohemiancoding.com/sketch/ns" width="60px" height="60px" viewBox="0 0 60 60" version="1.1"
     xmlns="http://www.w3.org/2000/svg">
    <!-- Generator: Sketch 3.3.2 (12043) - http://www.bohemiancoding.com/sketch -->
    <title>icon-cart</title>
    <desc>Created with Sketch.</desc>
    <defs></defs>
    <g id="Page-1" stroke="none" stroke-width="1" fill="none" fill-rule="evenodd" sketch:type="MSPage">
        <path d="M24.5890225,54.5121615 C21.5804958,54.5121615 19.1338517,52.0684165 19.1338517,49.0634548 C19.1338517,46.058493 21.5804958,43.614748 24.5890225,43.614748 C27.5975492,43.614748 30.0441934,46.058493 30.0441934,49.0634548 C30.0441934,52.0684165 27.5975492,54.5121615 24.5890225,54.5121615 L24.5890225,54.5121615 Z M24.5890225,46.3391014 C23.086123,46.3391014 21.8614371,47.562336 21.8614371,49.0634548 C21.8614371,50.5645735 23.086123,51.7878081 24.5890225,51.7878081 C26.0919221,51.7878081 27.3166079,50.5645735 27.3166079,49.0634548 C27.3166079,47.562336 26.0919221,46.3391014 24.5890225,46.3391014 Z M43.6821204,54.5121615 C40.6735937,54.5121615 38.2269496,52.0684165 38.2269496,49.0634548 C38.2269496,46.058493 40.6735937,43.614748 43.6821204,43.614748 C46.6906471,43.614748 49.1372913,46.058493 49.1372913,49.0634548 C49.1372913,52.0684165 46.6906471,54.5121615 43.6821204,54.5121615 Z M43.6821204,46.3391014 C42.1792209,46.3391014 40.954535,47.562336 40.954535,49.0634548 C40.954535,50.5645735 42.1792209,51.7878081 43.6821204,51.7878081 C45.18502,51.7878081 46.4097058,50.5645735 46.4097058,49.0634548 C46.4097058,47.562336 45.18502,46.3391014 43.6821204,46.3391014 Z M50.6074598,12.1947804 C49.9228359,11.3856474 48.889081,10.9225074 47.7734985,10.9225074 L14.3796703,10.9225074 L14.1096394,9.29879274 C13.7523257,7.15472663 11.7666435,5.47380059 9.58730274,5.47380059 L6.85971733,5.47380059 C6.10690375,5.47380059 5.49592462,6.08405575 5.49592462,6.83597728 C5.49592462,7.58789882 6.10690375,8.19815397 6.85971733,8.19815397 L9.58730274,8.19815397 C10.4246715,8.19815397 11.2811333,8.92283197 11.4175126,9.74831105 L15.9753078,37.0654024 C16.3326215,39.2094686 18.3183037,40.8903946 20.4976444,40.8903946 L47.7734985,40.8903946 C48.5263121,40.8903946 49.1372913,40.2801394 49.1372913,39.5282179 C49.1372913,38.7762964 48.5263121,38.1660412 47.7734985,38.1660412 L20.4976444,38.1660412 C19.6602757,38.1660412 18.8038139,37.4413632 18.6674346,36.6158841 L17.993721,32.5838411 L45.1741096,30.2218267 C47.2879883,30.0392951 49.2191188,28.257568 49.5682497,26.1652646 L51.3984596,15.1942935 C51.5812078,14.0936547 51.2948113,12.9984646 50.6101874,12.192056 L50.6074598,12.1947804 Z M48.7063328,14.7474995 L46.8761229,25.7184706 C46.7315609,26.5793663 45.809637,27.4320889 44.9368097,27.5083708 L17.5436694,29.8867313 L14.8324495,13.6441364 L47.770771,13.6441364 C48.0898985,13.6441364 48.3572018,13.7531105 48.5235845,13.9519883 C48.6899672,14.1508661 48.7554293,14.4314745 48.7036052,14.7447752 L48.7063328,14.7474995 Z"
              id="cart" fill="#FFFFFF" sketch:type="MSShapeGroup"></path>
    </g>
</svg>