<?xml version="1.0" encoding="UTF-8" standalone="no"?>
<svg xmlns:sketch="http://www.bohemiancoding.com/sketch/ns" width="60px" height="60px" viewBox="0 0 60 60" version="1.1"
     xmlns="http://www.w3.org/2000/svg">
    <!-- Generator: Sketch 3.3.2 (12043) - http://www.bohemiancoding.com/sketch -->
    <title>icon-service</title>
    <desc>Created with Sketch.</desc>
    <defs></defs>
    <g id="Page-1" stroke="none" stroke-width="1" fill="none" fill-rule="evenodd" sketch:type="MSPage">
        <g id="Contact" sketch:type="MSLayerGroup" transform="translate(5.000000, 5.000000)">
            <path d="M24.9992676,49.8000792 C11.3262646,49.8000792 0.200653186,38.6744678 0.200653186,25 C0.200653186,11.3255322 11.3262646,0.199920756 24.9992676,0.199920756 C38.6737354,0.199920756 49.7993468,11.3255322 49.7993468,25 C49.7993468,38.6744678 38.6737354,49.8000792 24.9992676,49.8000792 L24.9992676,49.8000792 Z M24.9992676,3.10109723 C12.8277461,3.10109723 2.92382787,13.0035506 2.92382787,25.1765369 C2.92382787,37.3495233 12.8277461,47.2519766 24.9992676,47.2519766 C37.1722539,47.2519766 47.0761721,37.3495233 47.0761721,25.1765369 C47.0761721,13.0035506 37.1722539,3.10109723 24.9992676,3.10109723 L24.9992676,3.10109723 Z"
                  id="Fill-57-Copy" fill="#FFFFFF" sketch:type="MSShapeGroup"></path>
            <g id="Shape-+-Shape-+-Shape" transform="translate(10.000000, 14.568793)" stroke="#FFFFFF"
               sketch:type="MSShapeGroup">
                <path d="M15.687934,18.0411241 L18.0411241,20.3943142" id="Shape"></path>
                <path d="M5.49077691,7.05957031 L7.84396701,9.41276042" id="Shape"></path>
                <path d="M7.05957031,18.8255208 C4.04748698,15.6204759 -2.44261133,6.61873937 1.5687934,2.3531901 C3.3525115,0.45651888 4.40987826,-0.465931641 7.05957031,2.3531901 C9.75161979,5.21780686 9.95242535,6.38655794 7.84396701,8.62836372 C6.79130664,9.74691341 9.50845681,13.3378815 10.9815538,14.9035373 C12.4546508,16.4707619 15.5938064,18.9776938 16.4723307,18.0411241 C18.5148997,15.8683453 19.2271319,15.9138403 21.9631076,18.8255208 C24.6143685,21.6446426 23.7625137,22.4023698 21.9631076,24.3162977 C18.0772064,28.4500684 9.9634069,21.9129062 7.05957031,18.8255208 Z"
                      id="Shape"></path>
            </g>
            <g id="Oval-1-+-Shape-+-Rectangle" transform="translate(25.687934, 13.000000)" fill="#FFFFFF"
               sketch:type="MSShapeGroup">
                <path d="M3.22558759,10.1395868 C2.94027679,10.6728765 2.44988218,11.408944 1.6853837,12.027939 C1.38895298,12.2679644 1.64955141,12.5503472 2.56164593,12.5503472 C3.02197938,12.5503472 5.52931725,12.1756557 6.2368317,10.9473637 C6.5055718,10.9699535 6.78002447,10.9815538 7.05957031,10.9815538 C11.2623678,10.9815538 14.1191406,8.52325456 14.1191406,5.49077691 C14.1191406,2.45829926 11.2702118,0 7.05957031,0 C3.0434592,0 0,2.45829926 0,5.49077691 C0,7.44884572 1.24666376,9.1675237 3.22558759,10.1395868 L3.22558759,10.1395868 Z M3.13758681,4.70638021 L4.70638021,4.70638021 L4.70638021,6.27517361 L3.13758681,6.27517361 L3.13758681,4.70638021 Z M9.41276042,4.70638021 L10.9815538,4.70638021 L10.9815538,6.27517361 L9.41276042,6.27517361 L9.41276042,4.70638021 Z"
                      id="Shape"></path>
            </g>
        </g>
    </g>
</svg>