<?xml version="1.0" encoding="UTF-8" standalone="no"?>
<svg xmlns:sketch="http://www.bohemiancoding.com/sketch/ns" width="60px" height="60px" viewBox="0 0 60 60" version="1.1"
     xmlns="http://www.w3.org/2000/svg">
    <!-- Generator: Sketch 3.3.2 (12043) - http://www.bohemiancoding.com/sketch -->
    <title>icon-qq</title>
    <desc>Created with Sketch.</desc>
    <defs></defs>
    <g id="Page-1" stroke="none" stroke-width="1" fill="none" fill-rule="evenodd" sketch:type="MSPage">
        <path d="M30,60 C46.5685433,60 60,46.5685433 60,30 C60,13.4314567 46.5685433,0 30,0 C13.4314567,0 0,13.4314567 0,30 C0,46.5685433 13.4314567,60 30,60 Z M15.7916219,24.1813282 C15.5885734,24.7243774 15.8862746,25.0681772 15.7916219,27.1357121 C15.7661627,27.6918264 13.3964754,30.2090721 12.4560358,32.8235275 C11.5230904,35.4171485 11.394713,38.1265915 12.8350797,39.1914665 C14.2754464,40.2563416 15.6163817,35.6468724 15.7916219,36.3175758 C15.8680757,36.6101905 15.9634166,36.9146107 16.0781757,37.2273642 C16.5391242,38.4835895 17.3133572,39.8742603 18.4352911,41.1743644 C18.6632025,41.4384697 17.0470084,41.9241348 16.0781757,43.5919281 C15.1093429,45.2597214 16.3557501,48.2920723 21.1740449,48.2920715 C27.3903646,48.2920715 28.7798292,46.0803724 28.9065397,46.0900635 C29.3693992,46.125464 29.4013877,46.090064 29.8920538,46.0900641 C30.4923352,46.0900642 30.2439681,46.1388991 30.8017591,46.0900635 C31.1029981,46.0636894 34.1241784,48.7370319 38.3068277,48.2920715 C45.4328531,47.5339874 44.3431551,45.1171979 43.7838006,43.5919281 C43.2000009,42 41.1356951,41.2540511 41.2268214,41.1521376 C42.9338741,39.2430096 43.2043676,38.0709254 43.7838003,36.3175763 C44.021995,35.5968053 45.6755215,40.2830402 46.9490277,39.1914665 C47.4796902,38.7366142 48.541013,36.8413925 47.4796902,32.8235275 C46.4183674,28.8056625 44.3662735,27.8891178 44.4108605,27.1357118 C44.5036599,25.5676423 44.4497809,24.466494 44.3715298,24.1813282 C43.9924855,22.8 43.2,23.105002 43.2,22.8 C43.2,14.8470992 37.2901591,8.4 30,8.4 C22.7098409,8.4 16.8,14.8470992 16.8,22.8 C16.8,23.4312363 16.2464746,22.9648339 15.7916219,24.1813282 Z"
              id="qq_c" fill="#68A5E1" sketch:type="MSShapeGroup"></path>
    </g>
</svg>