<?xml version="1.0" encoding="UTF-8" standalone="no"?>
<svg xmlns:sketch="http://www.bohemiancoding.com/sketch/ns" width="60px" height="60px" viewBox="0 0 60 60" version="1.1"
     xmlns="http://www.w3.org/2000/svg">
    <!-- Generator: Sketch 3.3.2 (12043) - http://www.bohemiancoding.com/sketch -->
    <title>icon-qq-white</title>
    <desc>Created with Sketch.</desc>
    <defs></defs>
    <g id="Page-1" stroke="none" stroke-width="1" fill="none" fill-rule="evenodd" sketch:type="MSPage">
        <path d="M30,55 C43.8071194,55 55,43.8071194 55,30 C55,16.1928806 43.8071194,5 30,5 C16.1928806,5 5,16.1928806 5,30 C5,43.8071194 16.1928806,55 30,55 Z M18.1596849,25.1511068 C17.9904778,25.6036478 18.2385622,25.8901477 18.1596849,27.6130934 C18.1384689,28.076522 16.1637295,30.1742267 15.3800299,32.3529396 C14.6025753,34.5142904 14.4955942,36.7721596 15.6958997,37.6595554 C16.8962053,38.5469513 18.0136514,34.705727 18.1596849,35.2646465 C18.2233964,35.5084921 18.3028472,35.7621756 18.3984798,36.0228035 C18.7826035,37.0696579 19.4277976,38.2285502 20.3627425,39.3119703 C20.5526688,39.5320581 19.2058403,39.936779 18.3984797,41.3266068 C17.5911191,42.7164345 18.6297918,45.2433936 22.6450374,45.2433929 C27.8253038,45.2433929 28.983191,43.4003103 29.0887831,43.4083862 C29.4744993,43.4378867 29.5011564,43.4083866 29.9100449,43.4083867 C30.4102793,43.4083868 30.2033068,43.4490826 30.6681326,43.4083862 C30.9191651,43.3864079 33.4368153,45.6141932 36.9223564,45.2433929 C42.8607109,44.6116562 41.9526292,42.597665 41.4865005,41.3266068 C41.0000007,40 39.279746,39.3783759 39.3556845,39.293448 C40.7782284,37.702508 41.0036396,36.7257712 41.4865003,35.2646469 C41.6849958,34.6640044 43.0629346,38.5692002 44.1241897,37.6595554 C44.5664085,37.2805119 45.4508442,35.7011604 44.5664085,32.3529396 C43.6819728,29.0047188 41.9718946,28.2409315 42.0090504,27.6130932 C42.0863832,26.3063686 42.0414841,25.388745 41.9762748,25.1511068 C41.6604046,24 41,24.2541683 41,24 C41,17.3725827 36.0751325,12 30,12 C23.9248675,12 19,17.3725827 19,24 C19,24.5260302 18.5387288,24.1373615 18.1596849,25.1511068 Z"
              id="qq_c" fill="#FFFFFF" sketch:type="MSShapeGroup"></path>
    </g>
</svg>