<?xml version="1.0" encoding="UTF-8" standalone="no"?>
<svg xmlns:sketch="http://www.bohemiancoding.com/sketch/ns" width="32px" height="32px" viewBox="0 0 32 32" version="1.1"
     xmlns="http://www.w3.org/2000/svg">
    <!-- Generator: Sketch 3.5.2 (25235) - http://www.bohemiancoding.com/sketch -->
    <title>tab_a_class</title>
    <desc>Created with Sketch.</desc>
    <defs></defs>
    <g id="Page-1" stroke="none" stroke-width="1" fill="none" fill-rule="evenodd" sketch:type="MSPage">
        <g id="bg" sketch:type="MSArtboardGroup" transform="translate(-706.000000, -187.000000)" fill="#717171">
            <g id="Group" sketch:type="MSLayerGroup" transform="translate(712.000000, 193.000000)">
                <g id="XMLID_967_" sketch:type="MSShapeGroup">
                    <path d="M7.94378378,9.53789474 L1.46756757,9.53789474 C0.722702703,9.53789474 0.116216216,8.94736842 0.116216216,8.22210526 L0.116216216,1.73684211 C0.116216216,1.01157895 0.722702703,0.421052632 1.46756757,0.421052632 L7.94378378,0.421052632 C8.68864865,0.421052632 9.29513514,1.01157895 9.29513514,1.73684211 L9.29513514,8.22210526 C9.29513514,8.94789474 8.68864865,9.53789474 7.94378378,9.53789474 L7.94378378,9.53789474 Z M1.46756757,0.947894737 C1.02054054,0.947894737 0.656756757,1.30210526 0.656756757,1.73736842 L0.656756757,8.22263158 C0.656756757,8.65789474 1.02054054,9.01210526 1.46756757,9.01210526 L7.94378378,9.01210526 C8.39081081,9.01210526 8.75459459,8.65789474 8.75459459,8.22263158 L8.75459459,1.73736842 C8.75459459,1.30210526 8.39081081,0.947894737 7.94378378,0.947894737 L1.46756757,0.947894737 L1.46756757,0.947894737 Z"
                          id="Shape"></path>
                </g>
                <g id="XMLID_963_" transform="translate(10.270270, 0.000000)" sketch:type="MSShapeGroup">
                    <path d="M8.33243243,9.53789474 L1.85621622,9.53789474 C1.11135135,9.53789474 0.504864865,8.94736842 0.504864865,8.22210526 L0.504864865,1.73684211 C0.504864865,1.01157895 1.11135135,0.421052632 1.85621622,0.421052632 L8.33243243,0.421052632 C9.0772973,0.421052632 9.68378378,1.01157895 9.68378378,1.73684211 L9.68378378,8.22210526 C9.68378378,8.94789474 9.0772973,9.53789474 8.33243243,9.53789474 L8.33243243,9.53789474 Z M1.85621622,0.947894737 C1.40918919,0.947894737 1.04540541,1.30210526 1.04540541,1.73736842 L1.04540541,8.22263158 C1.04540541,8.65789474 1.40918919,9.01210526 1.85621622,9.01210526 L8.33243243,9.01210526 C8.77945946,9.01210526 9.14324324,8.65789474 9.14324324,8.22263158 L9.14324324,1.73736842 C9.14324324,1.30210526 8.77945946,0.947894737 8.33243243,0.947894737 L1.85621622,0.947894737 L1.85621622,0.947894737 Z"
                          id="Shape"></path>
                </g>
                <g id="XMLID_935_" transform="translate(0.000000, 10.526316)" sketch:type="MSShapeGroup">
                    <path d="M7.94378378,9.30157895 L1.46756757,9.30157895 C0.722702703,9.30157895 0.116216216,8.71105263 0.116216216,7.98578947 L0.116216216,1.50052632 C0.116216216,0.775263158 0.722702703,0.184736842 1.46756757,0.184736842 L7.94378378,0.184736842 C8.68864865,0.184736842 9.29513514,0.775263158 9.29513514,1.50052632 L9.29513514,7.98578947 C9.29513514,8.71105263 8.68864865,9.30157895 7.94378378,9.30157895 L7.94378378,9.30157895 Z M1.46756757,0.711052632 C1.02054054,0.711052632 0.656756757,1.06526316 0.656756757,1.50052632 L0.656756757,7.98578947 C0.656756757,8.42105263 1.02054054,8.77526316 1.46756757,8.77526316 L7.94378378,8.77526316 C8.39081081,8.77526316 8.75459459,8.42105263 8.75459459,7.98578947 L8.75459459,1.50052632 C8.75459459,1.06526316 8.39081081,0.711052632 7.94378378,0.711052632 L1.46756757,0.711052632 L1.46756757,0.711052632 Z"
                          id="Shape"></path>
                </g>
                <g id="XMLID_742_" transform="translate(10.270270, 10.526316)" sketch:type="MSShapeGroup">
                    <path d="M8.33243243,9.30157895 L1.85621622,9.30157895 C1.11135135,9.30157895 0.504864865,8.71105263 0.504864865,7.98578947 L0.504864865,1.50052632 C0.504864865,0.775263158 1.11135135,0.184736842 1.85621622,0.184736842 L8.33243243,0.184736842 C9.0772973,0.184736842 9.68378378,0.775263158 9.68378378,1.50052632 L9.68378378,7.98578947 C9.68378378,8.71105263 9.0772973,9.30157895 8.33243243,9.30157895 L8.33243243,9.30157895 Z M1.85621622,0.711052632 C1.40918919,0.711052632 1.04540541,1.06526316 1.04540541,1.50052632 L1.04540541,7.98578947 C1.04540541,8.42105263 1.40918919,8.77526316 1.85621622,8.77526316 L8.33243243,8.77526316 C8.77945946,8.77526316 9.14324324,8.42105263 9.14324324,7.98578947 L9.14324324,1.50052632 C9.14324324,1.06526316 8.77945946,0.711052632 8.33243243,0.711052632 L1.85621622,0.711052632 L1.85621622,0.711052632 Z"
                          id="Shape"></path>
                </g>
            </g>
        </g>
    </g>
</svg>