<?xml version="1.0" encoding="UTF-8" standalone="no"?>
<svg xmlns:sketch="http://www.bohemiancoding.com/sketch/ns" width="32px" height="32px" viewBox="0 0 32 32" version="1.1"
     xmlns="http://www.w3.org/2000/svg">
    <!-- Generator: Sketch 3.5.2 (25235) - http://www.bohemiancoding.com/sketch -->
    <title>tab_a_home</title>
    <desc>Created with Sketch.</desc>
    <defs></defs>
    <g id="Page-1" stroke="none" stroke-width="1" fill="none" fill-rule="evenodd" sketch:type="MSPage">
        <g id="bg" sketch:type="MSArtboardGroup" transform="translate(-602.000000, -187.000000)" fill="#717171">
            <g id="XMLID_508_" sketch:type="MSLayerGroup" transform="translate(607.000000, 193.000000)">
                <path d="M10.5072222,0.992222222 C10.6894444,0.992222222 10.8583333,1.055 10.9811111,1.16888889 L20.0305556,9.52555556 L19.3383333,9.52555556 C18.3466667,9.52555556 17.54,10.3322222 17.54,11.3238889 L17.54,18.6722222 C17.54,19.0027778 17.2711111,19.2716667 16.9405556,19.2716667 L14.695,19.2716667 C14.3644444,19.2716667 14.0955556,19.0027778 14.0955556,18.6722222 L14.0955556,14.35 C14.0955556,13.3583333 13.2888889,12.5516667 12.2972222,12.5516667 L9.11111111,12.5516667 C8.11944444,12.5516667 7.31277778,13.3583333 7.31277778,14.35 L7.31277778,18.6722222 C7.31277778,19.0027778 7.04388889,19.2716667 6.71333333,19.2716667 L4.07333333,19.2716667 C3.74277778,19.2716667 3.47388889,19.0027778 3.47388889,18.6722222 L3.47388889,11.3238889 C3.47388889,10.3322222 2.66722222,9.52555556 1.67555556,9.52555556 L0.983333333,9.52555556 L10.0327778,1.16888889 C10.1561111,1.05444444 10.3244444,0.992222222 10.5072222,0.992222222 L10.5072222,0.992222222 Z M10.5072222,0.392777778 C10.1877778,0.392777778 9.86888889,0.504444444 9.62666667,0.728333333 L0.331666667,9.31166667 C-0.152777778,9.75888889 -0.00944444444,10.125 0.65,10.125 L1.67611111,10.125 C2.33555556,10.125 2.875,10.6644444 2.875,11.3238889 L2.875,18.6722222 C2.875,19.3316667 3.41444444,19.8711111 4.07388889,19.8711111 L6.71388889,19.8711111 C7.37333333,19.8711111 7.91277778,19.3316667 7.91277778,18.6722222 L7.91277778,14.35 C7.91277778,13.6905556 8.45222222,13.1511111 9.11166667,13.1511111 L12.2983333,13.1511111 C12.9577778,13.1511111 13.4972222,13.6905556 13.4972222,14.35 L13.4972222,18.6722222 C13.4972222,19.3316667 14.0366667,19.8711111 14.6961111,19.8711111 L16.9416667,19.8711111 C17.6011111,19.8711111 18.1405556,19.3316667 18.1405556,18.6722222 L18.1405556,11.3238889 C18.1405556,10.6644444 18.68,10.125 19.3394444,10.125 L20.3655556,10.125 C21.025,10.125 21.1683333,9.75888889 20.6838889,9.31166667 L11.3888889,0.728333333 C11.1455556,0.504444444 10.8261111,0.392777778 10.5072222,0.392777778 L10.5072222,0.392777778 L10.5072222,0.392777778 Z"
                      id="Shape" sketch:type="MSShapeGroup"></path>
            </g>
        </g>
    </g>
</svg>