<?xml version="1.0" encoding="UTF-8" standalone="no"?>
<svg xmlns:sketch="http://www.bohemiancoding.com/sketch/ns" width="32px" height="32px" viewBox="0 0 32 32" version="1.1"
     xmlns="http://www.w3.org/2000/svg">
    <!-- Generator: Sketch 3.5.2 (25235) - http://www.bohemiancoding.com/sketch -->
    <title>tab_a_class_s</title>
    <desc>Created with Sketch.</desc>
    <defs></defs>
    <g id="Page-1" stroke="none" stroke-width="1" fill="none" fill-rule="evenodd" sketch:type="MSPage">
        <g id="bg" sketch:type="MSArtboardGroup" transform="translate(-705.000000, -228.000000)" fill="#EA555F">
            <g id="Group" sketch:type="MSLayerGroup" transform="translate(711.000000, 234.000000)">
                <g id="XMLID_869_" sketch:type="MSShapeGroup">
                    <path d="M7.68736842,9.49894737 L1.38157895,9.49894737 C0.655789474,9.49894737 0.0657894737,8.90842105 0.0657894737,8.18315789 L0.0657894737,1.69842105 C0.0657894737,0.973157895 0.655789474,0.382631579 1.38157895,0.382631579 L7.68736842,0.382631579 C8.41315789,0.382631579 9.00315789,0.973157895 9.00315789,1.69842105 L9.00315789,8.18368421 C9.00315789,8.90894737 8.41315789,9.49894737 7.68736842,9.49894737 L7.68736842,9.49894737 Z M1.38157895,0.908947368 C0.946315789,0.908947368 0.592105263,1.26315789 0.592105263,1.69842105 L0.592105263,8.18368421 C0.592105263,8.61894737 0.946315789,8.97315789 1.38157895,8.97315789 L7.68736842,8.97315789 C8.12263158,8.97315789 8.47684211,8.61894737 8.47684211,8.18368421 L8.47684211,1.69842105 C8.47684211,1.26315789 8.12263158,0.908947368 7.68736842,0.908947368 L1.38157895,0.908947368 L1.38157895,0.908947368 Z"
                          id="Shape"></path>
                </g>
                <g id="XMLID_867_" transform="translate(10.000000, 0.000000)" sketch:type="MSShapeGroup">
                    <path d="M4.96473684,9.62263158 C4.61210526,9.62263158 4.28157895,9.48631579 4.03368421,9.23842105 L0.615789474,5.82 C0.367894737,5.57210526 0.231578947,5.24210526 0.231578947,4.88947368 C0.231578947,4.53684211 0.368421053,4.20684211 0.615789474,3.95894737 L3.93157895,0.643157895 C4.42736842,0.147368421 5.29736842,0.148421053 5.79210526,0.643157895 L9.21052632,4.06157895 C9.72368421,4.57473684 9.72368421,5.40947368 9.21052632,5.92263158 L5.89473684,9.23842105 C5.64684211,9.48578947 5.31684211,9.62263158 4.96473684,9.62263158 L4.96473684,9.62263158 Z M4.86157895,0.785263158 C4.65052632,0.785263158 4.45210526,0.866842105 4.30315789,1.01526316 L0.987368421,4.33105263 C0.838947368,4.47947368 0.756842105,4.67789474 0.756842105,4.88947368 C0.756842105,5.10105263 0.838421053,5.29947368 0.987368421,5.44789474 L4.40526316,8.86631579 C4.70210526,9.16263158 5.22526316,9.16315789 5.52210526,8.86631579 L8.83789474,5.55052632 C9.14526316,5.24263158 9.14526316,4.74157895 8.83789474,4.43368421 L5.41947368,1.01526316 C5.27210526,0.867368421 5.07368421,0.785263158 4.86157895,0.785263158 L4.86157895,0.785263158 Z"
                          id="Shape"></path>
                </g>
                <g id="XMLID_864_" transform="translate(0.000000, 10.526316)" sketch:type="MSShapeGroup">
                    <path d="M7.68736842,9.26263158 L1.38157895,9.26263158 C0.655789474,9.26263158 0.0657894737,8.67210526 0.0657894737,7.94684211 L0.0657894737,1.46157895 C0.0657894737,0.736315789 0.655789474,0.145789474 1.38157895,0.145789474 L7.68736842,0.145789474 C8.41315789,0.145789474 9.00315789,0.736315789 9.00315789,1.46157895 L9.00315789,7.94684211 C9.00315789,8.67210526 8.41315789,9.26263158 7.68736842,9.26263158 L7.68736842,9.26263158 Z M1.38157895,0.672105263 C0.946315789,0.672105263 0.592105263,1.02631579 0.592105263,1.46157895 L0.592105263,7.94684211 C0.592105263,8.38210526 0.946315789,8.73631579 1.38157895,8.73631579 L7.68736842,8.73631579 C8.12263158,8.73631579 8.47684211,8.38210526 8.47684211,7.94684211 L8.47684211,1.46157895 C8.47684211,1.02631579 8.12263158,0.672105263 7.68736842,0.672105263 L1.38157895,0.672105263 L1.38157895,0.672105263 Z"
                          id="Shape"></path>
                </g>
                <g id="XMLID_859_" transform="translate(10.000000, 10.526316)" sketch:type="MSShapeGroup">
                    <path d="M8.06578947,9.26263158 L1.76,9.26263158 C1.03421053,9.26263158 0.444210526,8.67210526 0.444210526,7.94684211 L0.444210526,1.46157895 C0.444210526,0.736315789 1.03421053,0.145789474 1.76,0.145789474 L8.06578947,0.145789474 C8.79157895,0.145789474 9.38157895,0.736315789 9.38157895,1.46157895 L9.38157895,7.94684211 C9.38157895,8.67210526 8.79157895,9.26263158 8.06578947,9.26263158 L8.06578947,9.26263158 Z M1.76,0.672105263 C1.32473684,0.672105263 0.970526316,1.02631579 0.970526316,1.46157895 L0.970526316,7.94684211 C0.970526316,8.38210526 1.32473684,8.73631579 1.76,8.73631579 L8.06578947,8.73631579 C8.50105263,8.73631579 8.85526316,8.38210526 8.85526316,7.94684211 L8.85526316,1.46157895 C8.85526316,1.02631579 8.50105263,0.672105263 8.06578947,0.672105263 L1.76,0.672105263 L1.76,0.672105263 Z"
                          id="Shape"></path>
                </g>
            </g>
        </g>
    </g>
</svg>