<?xml version="1.0" encoding="UTF-8" standalone="no"?>
<svg xmlns:sketch="http://www.bohemiancoding.com/sketch/ns" width="32px" height="32px" viewBox="0 0 32 32" version="1.1"
     xmlns="http://www.w3.org/2000/svg">
    <!-- Generator: Sketch 3.5.2 (25235) - http://www.bohemiancoding.com/sketch -->
    <title>tab_a_cart</title>
    <desc>Created with Sketch.</desc>
    <defs></defs>
    <g id="Page-1" stroke="none" stroke-width="1" fill="none" fill-rule="evenodd" sketch:type="MSPage">
        <g id="bg" sketch:type="MSArtboardGroup" transform="translate(-758.000000, -188.000000)" fill="#707170">
            <g id="Group" sketch:type="MSLayerGroup" transform="translate(762.000000, 194.000000)">
                <g id="XMLID_1119_" sketch:type="MSShapeGroup">
                    <path d="M23.1702703,15.9178378 L9.11459459,15.9178378 C8.39243243,15.9178378 7.67891892,15.3724324 7.48864865,14.6756757 L3.98972973,1.82702703 C3.86540541,1.36972973 3.35945946,0.983243243 2.88540541,0.983243243 L0.241081081,0.983243243 L0.241081081,0.442702703 L2.88540541,0.442702703 C3.60756757,0.442702703 4.32162162,0.988648649 4.51135135,1.68486486 L8.01027027,14.5335135 C8.13459459,14.9908108 8.64054054,15.3772973 9.11459459,15.3772973 L23.1702703,15.3772973 L23.1702703,15.9178378 L23.1702703,15.9178378 Z"
                          id="Shape"></path>
                </g>
                <g id="XMLID_1117_" transform="translate(6.486486, 3.783784)" sketch:type="MSShapeGroup">
                    <path d="M3.97135135,10.0637838 L3.90810811,9.52702703 L14.9432432,8.22540541 C15.4232432,8.16864865 15.9232432,7.72324324 16.0351351,7.25297297 L17.3454054,1.71405405 C17.3924324,1.51621622 17.36,1.33405405 17.2545946,1.20108108 C17.1497297,1.06756757 16.9794595,0.994594595 16.7762162,0.994594595 L0.343783784,0.994594595 L0.343783784,0.454054054 L16.7756757,0.454054054 C17.1421622,0.454054054 17.4713514,0.604324324 17.6783784,0.865945946 C17.8854054,1.12756757 17.9551351,1.48216216 17.8702703,1.83837838 L16.56,7.3772973 C16.3956757,8.07027027 15.7135135,8.67891892 15.0059459,8.76216216 L3.97135135,10.0637838 L3.97135135,10.0637838 Z"
                          id="Shape"></path>
                </g>
                <g id="XMLID_1116_" transform="translate(9.189189, 16.216216)" sketch:type="MSShapeGroup">
                    <path d="M1.92702703,3.70648649 C1.01459459,3.70648649 0.271891892,2.96378378 0.271891892,2.05135135 C0.271891892,1.13891892 1.01405405,0.396756757 1.92702703,0.396756757 C2.84,0.396756757 3.58216216,1.13891892 3.58216216,2.05135135 C3.58216216,2.96378378 2.84,3.70648649 1.92702703,3.70648649 L1.92702703,3.70648649 Z M1.92702703,0.937297297 C1.31243243,0.937297297 0.812432432,1.4372973 0.812432432,2.05135135 C0.812432432,2.66594595 1.31243243,3.16594595 1.92702703,3.16594595 C2.54162162,3.16594595 3.04162162,2.66594595 3.04162162,2.05135135 C3.04162162,1.4372973 2.54162162,0.937297297 1.92702703,0.937297297 L1.92702703,0.937297297 Z"
                          id="Shape"></path>
                </g>
                <g id="XMLID_871_" transform="translate(16.756757, 16.216216)" sketch:type="MSShapeGroup">
                    <path d="M2.17135135,3.70648649 C1.25891892,3.70648649 0.516216216,2.96378378 0.516216216,2.05135135 C0.516216216,1.13891892 1.25837838,0.396756757 2.17135135,0.396756757 C3.08432432,0.396756757 3.82648649,1.13891892 3.82648649,2.05135135 C3.82648649,2.96378378 3.08432432,3.70648649 2.17135135,3.70648649 L2.17135135,3.70648649 Z M2.17135135,0.937297297 C1.55675676,0.937297297 1.05675676,1.4372973 1.05675676,2.05135135 C1.05675676,2.66594595 1.55675676,3.16594595 2.17135135,3.16594595 C2.78594595,3.16594595 3.28594595,2.66594595 3.28594595,2.05135135 C3.28594595,1.4372973 2.78594595,0.937297297 2.17135135,0.937297297 L2.17135135,0.937297297 Z"
                          id="Shape"></path>
                </g>
            </g>
        </g>
    </g>
</svg>