<?xml version="1.0" encoding="UTF-8" standalone="no"?>
<svg xmlns:sketch="http://www.bohemiancoding.com/sketch/ns" width="32px" height="32px" viewBox="0 0 32 32" version="1.1"
     xmlns="http://www.w3.org/2000/svg">
    <!-- Generator: Sketch 3.5.2 (25235) - http://www.bohemiancoding.com/sketch -->
    <title>tab_a_cart_s</title>
    <desc>Created with Sketch.</desc>
    <defs></defs>
    <g id="Page-1" stroke="none" stroke-width="1" fill="none" fill-rule="evenodd" sketch:type="MSPage">
        <g id="bg" sketch:type="MSArtboardGroup" transform="translate(-756.000000, -228.000000)" fill="#EA555F">
            <g id="Group" sketch:type="MSLayerGroup" transform="translate(760.000000, 234.000000)">
                <g id="XMLID_4_" sketch:type="MSShapeGroup">
                    <path d="M23.0113514,15.9178378 L8.95567568,15.9178378 C8.23351351,15.9178378 7.52,15.3724324 7.32972973,14.6756757 L3.83081081,1.82702703 C3.70648649,1.36972973 3.20054054,0.983243243 2.72648649,0.983243243 L0.0821621622,0.983243243 L0.0821621622,0.442702703 L2.72648649,0.442702703 C3.44864865,0.442702703 4.1627027,0.988648649 4.35243243,1.68486486 L7.85135135,14.5335135 C7.97567568,14.9908108 8.48162162,15.3772973 8.95567568,15.3772973 L23.0113514,15.3772973 L23.0113514,15.9178378 L23.0113514,15.9178378 Z"
                          id="Shape"></path>
                </g>
                <g id="XMLID_3_" transform="translate(6.486486, 3.783784)" sketch:type="MSShapeGroup">
                    <path d="M3.81243243,10.0637838 L3.74918919,9.52702703 L14.7843243,8.22540541 C15.2643243,8.16864865 15.7643243,7.72324324 15.8762162,7.25297297 L17.1864865,1.71405405 C17.2335135,1.51621622 17.2010811,1.33405405 17.0956757,1.20108108 C16.9908108,1.06756757 16.8205405,0.994594595 16.6172973,0.994594595 L0.185405405,0.994594595 L0.185405405,0.454054054 L16.6172973,0.454054054 C16.9837838,0.454054054 17.312973,0.604324324 17.52,0.865945946 C17.727027,1.12756757 17.7967568,1.48216216 17.7118919,1.83837838 L16.4016216,7.3772973 C16.2372973,8.07027027 15.5551351,8.67891892 14.8475676,8.76216216 L3.81243243,10.0637838 L3.81243243,10.0637838 Z"
                          id="Shape"></path>
                </g>
                <g id="XMLID_2_" transform="translate(9.189189, 16.216216)" sketch:type="MSShapeGroup">
                    <path d="M1.76864865,3.70648649 C0.856216216,3.70648649 0.113513514,2.96378378 0.113513514,2.05135135 C0.113513514,1.13891892 0.855675676,0.396756757 1.76864865,0.396756757 C2.68162162,0.396756757 3.42378378,1.13891892 3.42378378,2.05135135 C3.42378378,2.96378378 2.68108108,3.70648649 1.76864865,3.70648649 L1.76864865,3.70648649 Z M1.76864865,0.937297297 C1.15405405,0.937297297 0.654054054,1.4372973 0.654054054,2.05135135 C0.654054054,2.66594595 1.15405405,3.16594595 1.76864865,3.16594595 C2.38324324,3.16594595 2.88324324,2.66594595 2.88324324,2.05135135 C2.8827027,1.4372973 2.3827027,0.937297297 1.76864865,0.937297297 L1.76864865,0.937297297 Z"
                          id="Shape"></path>
                </g>
                <g id="XMLID_1_" transform="translate(16.756757, 16.216216)" sketch:type="MSShapeGroup">
                    <path d="M2.01297297,3.70648649 C1.10054054,3.70648649 0.357837838,2.96378378 0.357837838,2.05135135 C0.357837838,1.13891892 1.1,0.396756757 2.01297297,0.396756757 C2.92540541,0.396756757 3.66810811,1.13891892 3.66810811,2.05135135 C3.66810811,2.96378378 2.92540541,3.70648649 2.01297297,3.70648649 L2.01297297,3.70648649 Z M2.01297297,0.937297297 C1.39837838,0.937297297 0.898378378,1.4372973 0.898378378,2.05135135 C0.898378378,2.66594595 1.39837838,3.16594595 2.01297297,3.16594595 C2.62756757,3.16594595 3.12756757,2.66594595 3.12756757,2.05135135 C3.12702703,1.4372973 2.62702703,0.937297297 2.01297297,0.937297297 L2.01297297,0.937297297 Z"
                          id="Shape"></path>
                </g>
            </g>
        </g>
    </g>
</svg>