<?xml version="1.0" encoding="UTF-8" standalone="no"?>
<svg xmlns:sketch="http://www.bohemiancoding.com/sketch/ns" width="32px" height="32px" viewBox="0 0 32 32" version="1.1"
     xmlns="http://www.w3.org/2000/svg">
    <!-- Generator: Sketch 3.5.2 (25235) - http://www.bohemiancoding.com/sketch -->
    <title>tab_a_mine</title>
    <desc>Created with Sketch.</desc>
    <defs></defs>
    <g id="Page-1" stroke="none" stroke-width="1" fill="none" fill-rule="evenodd" sketch:type="MSPage">
        <g id="bg" sketch:type="MSArtboardGroup" transform="translate(-812.000000, -187.000000)" fill="#717171">
            <g id="Group" sketch:type="MSLayerGroup" transform="translate(820.000000, 193.000000)">
                <g id="XMLID_875_" transform="translate(1.025641, 0.000000)" sketch:type="MSShapeGroup">
                    <path d="M7.06769231,0.915384615 C10.5046154,0.915384615 13.3005128,3.71128205 13.3005128,7.14820513 C13.3005128,10.5851282 10.5046154,13.3810256 7.06769231,13.3810256 C3.63076923,13.3810256 0.834871795,10.5851282 0.834871795,7.14820513 C0.834871795,3.71128205 3.63076923,0.915384615 7.06769231,0.915384615 L7.06769231,0.915384615 Z M7.06769231,0.402564103 C3.34205128,0.402564103 0.322051282,3.4225641 0.322051282,7.14820513 C0.322051282,10.8738462 3.34205128,13.8938462 7.06769231,13.8938462 C10.7933333,13.8938462 13.8133333,10.8738462 13.8133333,7.14820513 C13.8133333,3.4225641 10.7933333,0.402564103 7.06769231,0.402564103 L7.06769231,0.402564103 L7.06769231,0.402564103 Z"
                          id="Shape"></path>
                </g>
                <path d="M15.7748718,19.5835897 C15.6589744,19.5835897 15.5538462,19.5051282 15.525641,19.3876923 C14.7584615,16.2287179 11.6328205,13.9358974 8.09384615,13.9358974 C4.55487179,13.9358974 1.42923077,16.2287179 0.661538462,19.3876923 C0.628205128,19.5251282 0.491794872,19.6102564 0.351794872,19.5764103 C0.213846154,19.5430769 0.12974359,19.4046154 0.163076923,19.2666667 C0.986153846,15.8805128 4.32153846,13.4230769 8.09435897,13.4230769 C11.8671795,13.4230769 15.2020513,15.8805128 16.0251282,19.2666667 C16.0579487,19.4046154 15.9738462,19.5430769 15.8364103,19.5764103 C15.8148718,19.5815385 15.7948718,19.5835897 15.7748718,19.5835897 L15.7748718,19.5835897 Z"
                      id="Shape" sketch:type="MSShapeGroup"></path>
            </g>
        </g>
    </g>
</svg>