<?xml version="1.0" encoding="UTF-8" standalone="no"?>
<svg xmlns:sketch="http://www.bohemiancoding.com/sketch/ns" width="32px" height="32px" viewBox="0 0 32 32" version="1.1"
     xmlns="http://www.w3.org/2000/svg">
    <!-- Generator: Sketch 3.5.2 (25235) - http://www.bohemiancoding.com/sketch -->
    <title>tab_a_home_s</title>
    <desc>Created with Sketch.</desc>
    <defs></defs>
    <g id="Page-1" stroke="none" stroke-width="1" fill="none" fill-rule="evenodd" sketch:type="MSPage">
        <g id="bg" sketch:type="MSArtboardGroup" transform="translate(-603.000000, -228.000000)" fill="#EA555F">
            <g id="XMLID_965_" sketch:type="MSLayerGroup" transform="translate(608.000000, 234.000000)">
                <path d="M10.5072222,0.997777778 C10.6894444,0.997777778 10.8583333,1.06055556 10.9811111,1.17444444 L20.0305556,9.53111111 L19.3383333,9.53111111 C18.3466667,9.53111111 17.54,10.3377778 17.54,11.3294444 L17.54,18.6777778 C17.54,19.0083333 17.2711111,19.2772222 16.9405556,19.2772222 L14.695,19.2772222 C14.3644444,19.2772222 14.0955556,19.0083333 14.0955556,18.6777778 L14.0955556,14.3555556 C14.0955556,13.3638889 13.2888889,12.5572222 12.2972222,12.5572222 L9.11111111,12.5572222 C8.11944444,12.5572222 7.31277778,13.3638889 7.31277778,14.3555556 L7.31277778,18.6777778 C7.31277778,19.0083333 7.04388889,19.2772222 6.71333333,19.2772222 L4.07333333,19.2772222 C3.74277778,19.2772222 3.47388889,19.0083333 3.47388889,18.6777778 L3.47388889,11.3294444 C3.47388889,10.3377778 2.66722222,9.53111111 1.67555556,9.53111111 L0.983333333,9.53111111 L10.0327778,1.17444444 C10.1561111,1.06 10.3244444,0.997777778 10.5072222,0.997777778 L10.5072222,0.997777778 Z M10.5072222,0.398333333 C10.1877778,0.398333333 9.86888889,0.51 9.62666667,0.733888889 L0.331666667,9.31722222 C-0.152777778,9.76444444 -0.00944444444,10.1305556 0.65,10.1305556 L1.67611111,10.1305556 C2.33555556,10.1305556 2.875,10.67 2.875,11.3294444 L2.875,18.6777778 C2.875,19.3372222 3.41444444,19.8766667 4.07388889,19.8766667 L6.71388889,19.8766667 C7.37333333,19.8766667 7.91277778,19.3372222 7.91277778,18.6777778 L7.91277778,14.3555556 C7.91277778,13.6961111 8.45222222,13.1566667 9.11166667,13.1566667 L12.2983333,13.1566667 C12.9577778,13.1566667 13.4972222,13.6961111 13.4972222,14.3555556 L13.4972222,18.6777778 C13.4972222,19.3372222 14.0366667,19.8766667 14.6961111,19.8766667 L16.9416667,19.8766667 C17.6011111,19.8766667 18.1405556,19.3372222 18.1405556,18.6777778 L18.1405556,11.3294444 C18.1405556,10.67 18.68,10.1305556 19.3394444,10.1305556 L20.3655556,10.1305556 C21.025,10.1305556 21.1683333,9.76444444 20.6838889,9.31722222 L11.3888889,0.733888889 C11.1455556,0.51 10.8261111,0.398333333 10.5072222,0.398333333 L10.5072222,0.398333333 L10.5072222,0.398333333 Z"
                      id="Shape" sketch:type="MSShapeGroup"></path>
            </g>
        </g>
    </g>
</svg>