<?xml version="1.0" encoding="UTF-8" standalone="no"?>
<svg xmlns:sketch="http://www.bohemiancoding.com/sketch/ns" width="32px" height="32px" viewBox="0 0 32 32" version="1.1"
     xmlns="http://www.w3.org/2000/svg">
    <!-- Generator: Sketch 3.5.2 (25235) - http://www.bohemiancoding.com/sketch -->
    <title>tab_a_mine_s</title>
    <desc>Created with Sketch.</desc>
    <defs></defs>
    <g id="Page-1" stroke="none" stroke-width="1" fill="none" fill-rule="evenodd" sketch:type="MSPage">
        <g id="bg" sketch:type="MSArtboardGroup" transform="translate(-812.000000, -228.000000)" fill="#EA555F">
            <g id="我的" sketch:type="MSLayerGroup" transform="translate(820.000000, 234.000000)">
                <g id="Group" sketch:type="MSShapeGroup">
                    <g id="XMLID_920_" transform="translate(1.052632, 0.000000)">
                        <path d="M7.42,0.736842105 C10.9473684,0.736842105 13.8168421,3.60631579 13.8168421,7.13368421 C13.8168421,10.6610526 10.9473684,13.5310526 7.42,13.5310526 C3.89263158,13.5310526 1.02315789,10.6615789 1.02315789,7.13421053 C1.02315789,3.60684211 3.89263158,0.736842105 7.42,0.736842105 L7.42,0.736842105 Z M7.42,0.210526316 C3.59631579,0.210526316 0.496842105,3.31 0.496842105,7.13368421 C0.496842105,10.9573684 3.59631579,14.0568421 7.42,14.0568421 C11.2436842,14.0568421 14.3431579,10.9573684 14.3431579,7.13368421 C14.3431579,3.31 11.2436842,0.210526316 7.42,0.210526316 L7.42,0.210526316 L7.42,0.210526316 Z"
                              id="Shape"></path>
                    </g>
                    <g id="XMLID_874_" transform="translate(4.736842, 8.947368)">
                        <path d="M3.73578947,3.02052632 C2.28105263,3.02052632 0.951052632,2.16 0.347894737,0.827894737 C0.287894737,0.695263158 0.346842105,0.539473684 0.478947368,0.479473684 C0.612631579,0.418947368 0.767368421,0.478421053 0.827368421,0.610526316 C1.34578947,1.75473684 2.48736842,2.49421053 3.73578947,2.49421053 C4.98421053,2.49421053 6.12578947,1.75473684 6.64421053,0.610526316 C6.70421053,0.478421053 6.85947368,0.418947368 6.99263158,0.479473684 C7.12473684,0.539473684 7.18368421,0.695789474 7.12368421,0.827894737 C6.52,2.16 5.19,3.02052632 3.73578947,3.02052632 L3.73578947,3.02052632 Z"
                              id="Shape"></path>
                    </g>
                    <path d="M16.3557895,19.8968421 C16.2373684,19.8968421 16.1294737,19.8163158 16.1005263,19.6957895 C15.3126316,16.4536842 12.1047368,14.1005263 8.47263158,14.1005263 C4.84052632,14.1005263 1.63263158,16.4536842 0.844736842,19.6957895 C0.810526316,19.8368421 0.666842105,19.9210526 0.526842105,19.8894737 C0.385789474,19.8552632 0.298947368,19.7126316 0.333157895,19.5715789 C1.17736842,16.0963158 4.60052632,13.5742105 8.47210526,13.5742105 C12.3436842,13.5742105 15.7668421,16.0963158 16.6115789,19.5715789 C16.6457895,19.7131579 16.5589474,19.8552632 16.4178947,19.8894737 C16.3973684,19.8942105 16.3763158,19.8968421 16.3557895,19.8968421 L16.3557895,19.8968421 Z"
                          id="Shape"></path>
                </g>
            </g>
        </g>
    </g>
</svg>